<?xml version="1.0" standalone="no"?>
<!DOCTYPE svg PUBLIC "-//W3C//DTD SVG 1.1//EN" "http://www.w3.org/Graphics/SVG/1.1/DTD/svg11.dtd" >
<svg xmlns="http://www.w3.org/2000/svg">
<metadata></metadata>
<defs>
<font id="boltonlightregular" horiz-adv-x="901" >
<font-face units-per-em="2048" ascent="1638" descent="-410" />
<missing-glyph horiz-adv-x="819" />
<glyph horiz-adv-x="2048" />
<glyph horiz-adv-x="2048" />
<glyph unicode="&#xd;" horiz-adv-x="2048" />
<glyph unicode=" "  horiz-adv-x="819" />
<glyph unicode="&#x09;" horiz-adv-x="819" />
<glyph unicode="&#xa0;" horiz-adv-x="819" />
<glyph unicode="!" horiz-adv-x="301" d="M41 139q0 -45 31 -80q31 -33 78 -32q45 0 77 32q33 33 33 80t-33 80q-34 35 -77 35q-45 0 -78 -35q-31 -33 -31 -80zM55 1206q0 -6 2 -45v-53l39 -737q45 23 49 22q14 0 64 -20q0 162 16 348q17 194 25 387q0 35 2 74v65q0 211 -29 320q-29 139 -65 139q-37 0 -68 -135 q-35 -129 -35 -365z" />
<glyph unicode="&#x22;" horiz-adv-x="407" d="M41 1577q2 -84 13.5 -114.5t37.5 -30.5q23 0 34 29.5t11 115.5v104h-96v-104zM270 1577q2 -84 13.5 -114.5t38.5 -30.5q23 0 34 29.5t11 115.5v104h-97v-104z" />
<glyph unicode="#" d="M41 444h289l-47 -323h4l47 323h203l-45 -323h6l47 323h315v7h-315l26 204h289v7h-287l50 342h-9l-49 -342h-203l50 342h-9l-47 -342h-315v-7h313l-26 -204h-287v-7zM334 451l26 204h205l-26 -204h-205z" />
<glyph unicode="$" horiz-adv-x="1028" d="M41 477q2 -31 2 -71v-91v-88q0 -43 10 -49q129 -111 373 -145l-23 -223h-6l23 221q35 -2 115 -2q156 0 307 108q145 102 145 275q-8 209 -153 278q-162 80 -338 117l24 262q92 -29 182 -80q78 -47 119 -104q6 -8 25 -27q8 -8 16 -8q12 0 12 8v6l-2 4q-8 29 -26 72 q-18 41 -31 98q-4 16 -29 23q-23 8 -51 22q-6 2 -8 2q-78 31 -203 45l23 236h8l-23 -238l-12 2q-33 4 -49 7v2q-6 0 -43 2h-45q-111 0 -205 -41q-104 -49 -104 -193q0 -80 41 -131q53 -55 135 -78q55 -27 96 -39q90 -25 137 -34l-51 -514q-139 37 -221 131q-63 80 -94 161 q-12 23 -25 70q-6 27 -37 27q-14 0 -14 -23zM223 973q0 66 66 88q49 18 121 24q55 0 116 -20l-26 -260q-43 10 -88 20q-18 4 -33 9q-53 18 -100 51q-55 43 -56 88zM426 109l51 518q117 -31 162 -45q78 -47 117 -95q43 -47 45 -137q0 -115 -88 -184q-80 -61 -166 -62h-10 q-35 0 -78 2q-23 3 -33 3z" />
<glyph unicode="%" horiz-adv-x="1050" d="M41 889q0 -106 74 -184q76 -76 186 -76q109 0 184 76q78 78 78 184q0 162 -176 272q172 -68 311 -67q133 0 312 71l-908 -1138h-24l901 1126q2 0 6 4q-6 -6 -8 -10v2l-12 -16h12v-33q2 16 16 33h-8l-2 -7q-160 -59 -285 -59q-122 0 -274 55q-59 27 -123 27 q-109 0 -186 -78q-74 -76 -74 -182zM152 887q0 106 26 178q31 90 121 90t121 -88q29 -74 31 -180q0 -121 -39 -185q-43 -78 -111 -77q-63 6 -111 108q-39 59 -38 154zM481 276q0 -106 76 -182q78 -74 184 -74q109 0 185 74q78 78 78 182t-78 183q-79 78 -185 78t-184 -78 q-76 -76 -76 -183zM592 276q0 106 26 179q33 88 123 88t121 -86q29 -74 31 -181q0 -106 -39 -184q-43 -78 -111 -78q-66 6 -112 109q-39 59 -39 153z" />
<glyph unicode="&#x26;" horiz-adv-x="1337" d="M41 588q0 -80 25 -160q74 -225 288 -330q135 -61 258 -61q90 0 195 33q4 0 10 2h8q37 0 54 -31q10 -12 24 -12q104 12 189 12q94 0 204 -12q-4 0 -4 -17q-2 2 -4 2q-20 49 -39 49q-31 0 -125 95q-14 10 -14 35q0 16 29 49q45 35 67 65q20 12 21 25q-12 31 -19 121 q-2 43 -2 120q0 2 6 2q-4 0 -8 -2q-8 -2 -12 -2h2q-6 -2 -6 -18l2 -27q-23 -100 -98 -207q-35 -35 -58 -34l-14 12q-6 6 -14 18q-6 8 -9 11q-8 14 -12 20q-72 113 -121 184q-113 172 -186 297q-39 66 -74 123q-2 4 -18 33q-27 45 -43 74q-2 2 -6 10q-8 12 -9 33q0 37 47 49 q33 10 103 10q76 0 135 -16q119 -25 213 -96q12 -14 23 -15l8 2v-6q0 8 -13 16q-53 55 -94 121l-2 4q-12 18 -20 25q-14 10 -39 10q-45 10 -131 10q-117 0 -213 -32q-10 -6 -33 -6q-41 0 -70 47q-2 4 -10 18t-18 31l-8 16q-14 25 -19 33q-2 4 -10 27q-16 33 -23 51 q0 2 -4 12q-10 39 -10 51q0 2 2 8v9q16 45 55 65q12 10 39 10q33 0 74 -28q51 -39 68 -72q12 -25 12 -41v-8q-2 -8 -2 -10q-8 -12 -8 -35q0 -10 4 -27q6 -12 8 -14q4 -6 6 -6q6 0 10 2q20 8 23 22q6 66 49 105q35 31 55 74q10 16 10 28t-10 29l-6 12q-2 2 -2 4 q-31 53 -74 78q-47 27 -96 27q-12 4 -41 4q-35 0 -76 -12q-182 -55 -213 -185q-6 -20 -6 -67q0 -117 70 -263l2 -4q16 -35 16 -53q0 -37 -35 -61q-139 -102 -200 -279q-33 -102 -33 -186zM252 754q0 129 53 219q25 35 43 45q31 0 60 -35q6 -10 20 -37q6 -8 18 -31l43 -73 q147 -250 234 -410q29 -55 47 -90q51 -96 66 -127q12 -14 12 -43q0 -55 -64 -55h-18q-10 -2 -21 -2q-129 0 -249 90q-139 102 -201 291q-43 133 -43 258z" />
<glyph unicode="'" horiz-adv-x="178" d="M41 1577q0 -84 11 -114.5t36 -30.5q27 0 38 30.5t11 114.5v104h-96v-104z" />
<glyph unicode="(" horiz-adv-x="229" d="M41 881q0 -360 65 -639q35 -228 82 -275q-45 119 -73 336q-41 268 -41 578q0 307 41 575q29 215 73 338q-47 -47 -82 -276q-66 -279 -65 -637z" />
<glyph unicode=")" horiz-adv-x="233" d="M41 -14q51 53 84 278q68 274 68 637q0 365 -68 637q-33 225 -84 277q47 -123 74 -338q43 -260 43 -576q0 -313 -43 -575q-29 -217 -74 -340z" />
<glyph unicode="*" horiz-adv-x="333" d="M41 1397l14 -13q0 4 19 17q37 49 96 106q-59 57 -96 107q-18 12 -19 16l-6 -4l-4 -4q21 0 125 -115q0 170 -2 170q2 -57 2 -170q94 115 121 115l-4 4l-4 6q0 -6 -21 -18q-49 -61 -94 -107q45 -45 94 -106q20 -14 21 -19l8 9l2 4q-25 0 -123 112q0 -113 -2 -168q2 0 2 166 q-88 -111 -109 -110q0 2 -20 2z" />
<glyph unicode="+" d="M41 547h408v-406h6v406h405v6h-405v408h-6v-408h-408v-6z" />
<glyph unicode="," horiz-adv-x="299" d="M41 137q0 -49 31 -80q31 -33 75 -32q4 0 41 -25q18 -14 19 -45q0 -27 -23 -82q-14 -31 -14 -43q0 12 -9 16t-16 4q25 1 56 50q25 31 43 98q14 45 14 96v21q-2 14 -2 18q-12 119 -109 119q-43 0 -77 -35q-29 -35 -29 -80z" />
<glyph unicode="-" d="M41 547h819v6h-819v-6z" />
<glyph unicode="." horiz-adv-x="301" d="M41 139q0 -45 31 -80q31 -33 78 -32q45 0 77 32q33 33 33 80t-33 80q-34 35 -77 35q-45 0 -78 -35q-31 -33 -31 -80z" />
<glyph unicode="/" horiz-adv-x="669" d="M41 72h10l578 1544h-11z" />
<glyph unicode="0" horiz-adv-x="1351" d="M41 858q0 -365 203 -622q201 -209 430 -209q233 0 432 221q203 223 205 610q0 385 -209 606q-209 226 -428 226q-217 0 -424 -244q-209 -246 -209 -588zM285 784q0 6 2 33v37q12 311 94 526q90 232 285 234q195 0 299 -219q86 -178 86 -449v-45q-2 -27 -2 -47 q-18 -319 -115 -516q-96 -227 -266 -244q-174 0 -287 223q-96 203 -96 467z" />
<glyph unicode="1" horiz-adv-x="737" d="M41 1145q0 -10 25 -23q4 -2 18 -2h8q8 2 12 2q6 0 11 4q2 2 8 7q6 4 8 6q29 23 66 43q28 12 61 35q10 8 33 8t31 -6q39 -12 40 -52v-170v-168q0 -45 3 -96v-80q0 -227 -15 -327q-18 -137 -43 -183q-35 -84 -74 -88q-12 0 -18 -43v-2l-2 -4q0 10 6 10q61 8 119 11 q72 6 119 6q31 0 98 -4h12q76 -4 111 -9h6q0 20 12 21q-6 -2 -14 -2l2 -2q-35 0 -74 45q-31 41 -51 194q-8 70 -12 188t-4 318v174q0 16 2 117v127q0 90 4 238q2 76 2 164q14 31 14 53q0 18 -8 20l-6 2h-6q-10 0 -31 -8q-6 -4 -16 -22l-25 -43q-43 -76 -55 -97 q-29 -47 -90 -123q-51 -59 -140 -114q-84 -55 -129 -94q-8 -6 -18 -29v-2z" />
<glyph unicode="2" horiz-adv-x="1204" d="M41 1251q6 -227 186 -344q2 0 6 -2q12 -8 17 -10q6 -2 20 -12q49 -16 99 -17q176 0 229 103q0 2 2 10q4 10 6 20h2q-2 -4 -2 -10q0 33 -26 33q-10 0 -17 -10q-72 -63 -178 -64q-45 0 -90 29q-39 23 -57 49h-2q-51 78 -52 195q0 127 101 229q106 102 235 102q80 0 113 -8 q45 -10 108 -59q74 -49 105 -117q55 -98 55 -233q-12 -92 -49 -172q-37 -76 -84 -146q-29 -33 -94 -98q-51 -49 -105 -86q-25 -12 -57 -35q-2 -2 -6 -4l-2 -2q-168 -115 -264 -244q-96 -131 -170 -305q0 -4 4 -12q4 -6 6 -6q209 16 395 18q133 0 236.5 -3t218.5 -11 q33 0 45 26q14 27 26 80l3 6q16 59 26 80q18 53 49 92q25 35 49 88q4 4 5 15q0 10 -3 14q-2 12 -12 12q-49 0 -71 -47q-88 -152 -277 -176q-156 -18 -414 -22q-23 0 -32 8q-14 0 -17.5 8t-3.5 25q0 12 16 41q92 123 242 217q145 90 283 184q131 90 229 207q90 102 90 264 q0 102 -41 219q-55 139 -194 232q-133 88 -318 88q-238 0 -405 -125q-164 -123 -164 -314z" />
<glyph unicode="3" horiz-adv-x="1298" d="M41 444q0 -154 145 -286q152 -133 377 -133q115 0 232 51q123 53 223 137t168 197q70 109 71 221q0 121 -21.5 212t-66.5 171q-94 164 -276 213q-49 12 -49 53q6 29 20 45q51 63 142 154q45 45 145 143l12 10q20 20 25 47v7q-240 -14 -416 -15q-119 0 -218 4t-204 13 q-8 0 -14 -9q-8 -10 -17 -26q-68 -129 -155 -234q-16 -18 -19 -45q0 -10 2 -10q55 0 95 61q53 78 247 97q66 10 187 10q76 0 131 -8q33 -4 45 -8l14 -17q0 -12 -24 -59q-61 -74 -164 -176q-115 -111 -176 -162q-20 -18 -21 -47q0 -4 -2 -4q39 0 58 10q35 20 86 20 q180 0 297 -145q96 -119 96 -266q0 -35 -6 -72q-2 -184 -123 -332q-121 -152 -314 -151q-141 0 -241 102q-98 104 -99 229v25q-2 16 -2 21q0 80 35 131q20 35 86 69q43 18 43 39q0 8 -2 19q0 2 2 2q-18 10 -69 10q-51 -2 -84 -21q-201 -86 -201 -297z" />
<glyph unicode="4" horiz-adv-x="1269" d="M41 387q0 -23 31 -29h700q25 0 39 -2q43 0 43 -75q-2 -102 -16 -140q-14 -43 -41 -55q-6 -2 -35 -16q-4 -2 -10 -4q-18 -8 -43 -56v8q2 -2 4 -2q61 8 116 11q68 6 117 6q59 0 111 -8q61 -6 102 -13h6q0 20 -4 29q-4 4 -6 4q-14 12 -25 18q-23 18 -43 64q-20 45 -32 145 q0 25 12 50q18 37 68 36h61q33 0 33 29v64q0 29 -33 28h-74q-76 0 -82 45q-4 37 -4 58q-2 37 -2 118q0 90 2 140q2 88 4 200q0 113 2 201q2 84 5 189q0 104 2 188q-4 0 -9 51q-4 16 -16 17q-53 -2 -84 -60q-180 -274 -412 -565q-188 -258 -450 -606q-31 -27 -37 -68z M256 506q0 29 16 47q106 160 240 328q148 190 240 333q6 10 30 37q10 12 18.5 15.5t12.5 3.5q39 0 39 -78q-2 -59 -2 -180v-183q2 -33 2 -71q2 -57 2 -72q2 -45 2 -125q0 -82 -57 -82h-39l-443 -10q-4 0 -10 -2h-6q-45 0 -45 39z" />
<glyph unicode="5" horiz-adv-x="1230" d="M41 375q0 -203 149 -291q164 -92 394 -92q244 0 430 184q176 174 176 399v19q-2 14 -2 16q0 287 -172 449q-174 170 -420 172q-131 -6 -236 -45q-12 -6 -32 -6q-45 0 -45 51q2 10 2 43v53v37v39q-4 12 -4 29q0 47 61 47q76 6 225 6q154 0 301 -12q2 -2 9 -3h2q25 0 45 3 q18 0 30 28q39 82 117 170q8 8 8 17h-2q-6 8 -20 8q-18 -8 -31 -19q-23 -16 -53 -22q-100 -14 -228 -15q-20 0 -65 2q-47 2 -72 3q-180 8 -354 24v2q-31 0 -47 2q-4 2 -8 2l-9 2q2 0 3 -2l2 -2q-2 -2 -2 -8q2 -51 10 -149v-13q10 -92 10 -168q0 -74 -10 -166v-12 q-8 -98 -10 -149q-2 -25 -3 -80q0 -31 31 -31q10 0 35 18q20 20 113 80q66 41 151 41q41 0 76 -8q158 -29 262 -178q106 -111 109 -295q0 -213 -107 -332q-104 -121 -266 -145q-18 -2 -55 -2q-135 0 -232 90q-94 92 -94 223q0 211 190 260h5q12 4 12 21q0 23 -21 22 q-12 0 -24 2h-23q-125 0 -211 -67q-96 -80 -100 -252z" />
<glyph unicode="6" horiz-adv-x="1282" d="M41 739q0 -371 192 -555q188 -188 461 -188v2q23 0 39 -2h-4q178 2 344 170q168 166 168 403q0 274 -168 418q-170 145 -414 146q-16 0 -24 -5q-125 -172 -289 -317q-14 -20 -49 -20q-37 12 -37 38q10 188 82 324q72 135 170 233q102 100 199 158q102 61 166 92 q35 0 49 15q2 2 2 6q0 22 -45 22q-147 0 -297 -94q-152 -92 -281 -233q-129 -137 -199 -285q-33 -80 -49 -159t-16 -169zM307 504q0 158 103 284q111 137 266 138q154 0 264 -160q109 -111 109 -262q0 -152 -109 -264q-110 -158 -264 -158q-156 0 -266 166 q-102 158 -103 256z" />
<glyph unicode="7" horiz-adv-x="1157" d="M41 1321q6 -10 18 -10q57 0 88 61q68 121 306 135q66 6 184 6q102 0 201 -10q66 0 65 -55q0 -12 -10 -33q-131 -250 -354 -659q-182 -360 -289 -715v-2l-2 -4q0 -8 2 -12q0 2 4 2q61 10 117 10q51 0 116 -10q4 0 9 -2h6q23 0 24 26q82 440 244 846q172 428 342 778 q4 6 4 13h-10q-25 -1 -33 -3q-68 -4 -199 -4q-33 0 -98 2q-66 2 -100 2q-262 12 -389 19h-4h-7q-25 0 -53 -19q-25 -14 -35 -38q-20 -74 -59 -152q-33 -66 -84 -147q-4 -6 -4 -21v-4z" />
<glyph unicode="8" horiz-adv-x="1234" d="M41 504q0 -227 162 -352q168 -127 399 -127q238 0 414 149q178 147 178 346q0 152 -84 283t-225 198q-57 31 -58 56q0 35 23 35q4 2 14 10q12 10 21 16q70 43 112 86q45 70 45 162q0 131 -124 229q-128 103 -314 103q-188 0 -319 -107q-127 -104 -127 -245 q4 -125 37 -191q37 -61 73 -94q39 -33 60 -41q31 -12 30 -37q0 -14 -20 -35q-111 -80 -207 -198q-90 -113 -90 -246zM231 512q0 137 66 268q82 166 199 166q23 0 104 -31q72 -27 168 -94q90 -61 154 -147q61 -80 61 -205q-25 -223 -131 -303q-103 -78 -246 -88 q-154 0 -254 115q-106 121 -119 278v21q-2 16 -2 20zM328 1389q0 106 84 184q77 74 190 74q84 -2 182 -74q100 -76 101 -184q0 -102 -43 -187q-45 -86 -131 -102q-90 0 -236 86q-147 96 -147 203z" />
<glyph unicode="9" horiz-adv-x="1239" d="M41 1163q0 -10 2 -30t2 -31q0 -272 186 -414q199 -145 396 -145h20q27 88 64 133q35 47 129 117q14 20 49 20q39 -12 39 -43q-18 -145 -99 -266q-80 -117 -180 -205q-96 -88 -200 -147q-86 -49 -166 -89h-4q-39 -8 -46 -18q-2 -2 -2 -4q0 -18 43 -18q145 0 310 90 q166 92 307 233q139 141 227 307q41 76 60.5 150t19.5 155q0 377 -164 555q-164 184 -452 187q-176 0 -369 -168q-172 -150 -172 -369zM217 1262q0 133 84 229q92 104 244 104q42 0 67 -6q195 -27 262 -194q66 -156 74 -246q2 -8 8 -45q6 -39 7 -47q0 -2 2 -13v-14 q0 -33 -15 -61q-29 -57 -131 -121q-106 -61 -215 -66q-158 0 -250 94.5t-127 288.5q-10 57 -10 97z" />
<glyph unicode=":" horiz-adv-x="301" d="M41 139q0 -45 31 -80q31 -33 78 -32q45 0 77 32q33 33 33 80t-33 80q-34 35 -77 35q-45 0 -78 -35q-31 -33 -31 -80zM41 1022q0 -47 31 -82q31 -31 78 -31q45 0 77 31q33 33 33 82q0 45 -35 80q-30 35 -75 35t-78 -35q-31 -33 -31 -80z" />
<glyph unicode=";" horiz-adv-x="301" d="M41 137q0 -49 31 -80q31 -33 75 -32q4 0 41 -25q18 -14 19 -45q0 -27 -23 -82q-14 -31 -14 -43q0 12 -9 16t-16 4q25 1 56 50q25 31 43 98q14 45 14 96v21q-2 14 -2 18q-12 119 -109 119q-43 0 -77 -35q-29 -35 -29 -80zM41 1018q0 -49 31 -80q31 -33 75 -33q49 0 78 33 q35 35 35 80t-35 80q-31 35 -78 35q-43 0 -77 -35q-29 -35 -29 -80z" />
<glyph unicode="=" d="M41 444h819v7h-819v-7zM41 655h819v7h-819v-7z" />
<glyph unicode="?" horiz-adv-x="1101" d="M41 1391q0 -63 43 -111q43 -45 106 -45t109 45q47 47 47 111q0 67 -51 114q72 55 172 80q20 6 61 6q63 0 111 -24q80 -37 129 -142q35 -68 35 -188q0 -53 -8 -102q-20 -221 -103 -291q-80 -68 -160 -109q-78 -41 -129 -110q-41 -55 -41 -211q0 -2 3 -19v-22q41 20 45 20 q14 0 61 -20q0 223 94 274q88 59 195 84q98 23 188 90q88 68 111 332q0 6 2 29v28q0 193 -115 326q-131 154 -381 154q-25 8 -80 8q-115 0 -260 -64q-184 -80 -184 -243zM301 139q0 -47 33 -80t78 -32q47 0 80 32q33 33 32 80q0 47 -32 80q-35 35 -80 35q-43 0 -78 -35 q-33 -33 -33 -80z" />
<glyph unicode="@" horiz-adv-x="1323" d="M41 856q0 -346 180 -590q176 -240 426 -239q127 0 234 61q90 49 163 137q-102 0 -165 -53q-88 -61 -232 -61q-236 0 -371 223q-131 217 -131 522t131 522q135 223 371 224q236 0 379 -224q141 -217 141 -522q0 -152 -47 -297q2 2 2 10v-10q6 12 8 14h-6 q-43 -160 -100 -159q-37 0 -68 55q-18 41 -22 117q0 31 -2 49v59q0 57 2 131v74q2 49 2 107q2 4 2 14q2 10 2 14q0 6 2 21q0 -4 2 -4q-80 51 -160 71q-82 25 -159 25q-145 0 -285 -109q6 2 6 4q0 -4 8 -12q12 -12 19 -12q-4 0 -6 -2q94 94 251 94q51 -4 103 -14 q72 -12 90 -49q14 -31 18 -64q0 -74 -79 -74q-20 0 -33 2q-8 2 -27 2q-174 0 -295 -57q-109 -51 -108 -242q0 -141 123 -190q63 -23 127 -23q74 0 153 31q43 16 84 17q37 0 66 -17q41 -23 84 -39q43 -39 104 -51q63 0 109 55q49 59 82 146q33 90 47 176q16 94 16 137 q0 340 -195 588q-190 242 -440 242q-252 0 -426 -242q-180 -244 -180 -588zM424 641q0 104 76 180q74 76 264 82q2 0 4 -2q18 -4 29 -8q31 -8 30 -68q-4 -18 -6 -77q0 -53 -2 -76q-2 -20 -2 -58q-2 -76 -39 -100q-2 -2 -12 -10l-6 -4q-12 -10 -21 -13q-74 -41 -139 -41 q-55 0 -90 25q-86 61 -86 170z" />
<glyph unicode="A" horiz-adv-x="1693" d="M41 18q0 10 4 11q109 10 203 12q90 0 190 -12q12 0 17 10q6 8 6 20q0 -4 8 -4q-25 6 -59 27q-33 20 -43 84q0 68 43 190q14 45 55 45h704q47 -6 66 -59q41 -125 41 -168q0 -55 -19 -78q-20 -25 -40 -35q-4 -8 -5 -30h11q10 -2 30 -2q96 8 193 12q82 0 201 -12v2q4 2 6 4 v4q-6 37 -13 37q-23 0 -73 53q-39 49 -113 201q-74 154 -201 508l-8 14l-301 795q-2 25 -8 24q-10 -2 -51 -2q-25 0 -37 -2h-39q-92 0 -180 2q-141 4 -183 8q4 0 5 23v-29l2 -4v-6q10 -47 114 -53q152 -12 164 -135q0 -88 -72 -226q-76 -145 -182 -428q-156 -362 -233 -508 q-90 -162 -121 -198q-47 -53 -70 -54q-4 0 -10 -24q0 -2 -2 -8v-9zM477 535q0 18 4 43q14 51 47 124q14 29 43 99l21 45q25 59 55 137q37 88 41 100q39 94 90 213q16 37 43 37q23 0 47 -37q88 -176 176 -458q12 -27 41 -95q18 -43 19 -45q29 -68 49 -123q4 -12 4 -38 q0 -48 -51 -48h-582q-47 0 -47 46z" />
<glyph unicode="B" horiz-adv-x="1656" d="M41 43q6 0 6 -27q0 4 6 4q111 10 191 13q66 0 96 -2h47q26 -2 49 -2h2h11h16q14 -2 65 -2q115 0 283 -4q80 0 131 3t94 9q358 68 465 225q111 164 113 313q-2 199 -121 310q-123 117 -326 172q-31 14 -30 55q12 29 39 39q249 82 249 234q0 38 -24 96q-25 59 -123 112 q-104 57 -322 88q-92 16 -251 17q-137 0 -347 -17h-65q-20 2 -62 2q-82 0 -184 11q-4 0 -4 -2q0 -29 6 -33q37 -6 74 -76q29 -61 47 -225q14 -102 14 -322v-92q-2 -59 -2 -113q-8 -340 -32 -512q-20 -156 -48 -211q-33 -63 -63 -63zM358 1184v45q8 125 21 239q14 88 22 113 q16 61 72 61q467 -6 578 -57q129 -55 129 -194q0 -160 -193 -217q-84 -23 -213 -35.5t-325 -12.5q-90 0 -91 58zM369 840q0 72 2 104q2 33 2 92q0 49 71 49l15 -2q86 -6 123 -8q55 0 104 2h31q217 -25 340 -73q127 -66 188 -152q63 -53 78 -111q14 -74 18 -149 q-16 -125 -41 -201q-29 -92 -112 -160q-80 -63 -234 -104q-156 -39 -413 -47q-59 0 -78 18q-23 20 -41 80q-27 70 -43 225q-4 63 -7 162t-3 275z" />
<glyph unicode="C" horiz-adv-x="1708" d="M41 854q0 -342 248 -582q249 -239 597 -239h3q143 0 342 37q197 37 313 108q43 16 43 31q0 47 31 160q27 115 47 174l2 4v2q0 4 -4 4q-6 8 -16 8h-5q-25 0 -30 -29l-8 -34q-86 -150 -267 -267q-178 -118 -327 -118h-2q-242 0 -476 209q-231 211 -231 522q0 309 188 532 q190 225 435 226q4 0 22 2h23q170 0 340 -84q197 -96 301 -256q12 -35 28 -35h19q2 0 2 -4q0 14 -2 28v11q-51 94 -74 200q-8 29 -22 54q-12 18 -54 32q-166 88 -315 107q-141 20 -303 20q-147 0 -301 -65q-154 -70 -275 -180q-123 -113 -198 -263q-74 -147 -74 -315z" />
<glyph unicode="D" horiz-adv-x="1632" d="M41 53q10 0 10 -24h2q27 2 97 2h90q29 0 47 -2h57h6q47 4 68 4q68 4 80 6q457 37 778 297q315 254 315 573q-8 244 -104 394q-94 147 -248 231t-350 111q-211 33 -420 34q-2 2 -4 2q-57 0 -86 -4q-33 -4 -88 -4h-103q-59 0 -106 8q-4 0 -4 -2v-30q29 -6 55 -93 q20 -59 33 -202q8 -127 8 -264q0 -41 -2 -113q-2 -100 -2 -148q-8 -358 -31 -510q-23 -164 -41 -204q-35 -61 -57 -62zM365 840q2 225 14 422q10 155 24 231v6q4 33 11 55q12 53 84 54q315 -8 567 -140q258 -131 270 -561q0 -287 -256 -522q-254 -229 -616 -260q-29 0 -41 7 t-16 24q-4 10 -7 24l-2 6q-16 66 -26 222q-4 55 -5 139t-1 293z" />
<glyph unicode="E" horiz-adv-x="1574" d="M41 53q8 0 8 -24h4q109 10 193 10q82 0 194 -2h166q102 -2 191 -2q59 0 250 -2q113 0 249 -2q16 0 25 8q16 20 39 45q35 53 78 104q25 29 47 48l18 18q16 14 27 25q4 6 4 32q0 12 -14 13q-23 0 -66 -31q-51 -33 -90 -49q-135 -82 -387 -115q-217 -27 -365 -27q-6 0 -39 2 h-41q-98 4 -141 105q-31 74 -31 229q0 123 2 260v146v94q0 35 5 80q0 55 51 55h438q109 -2 242 -12q152 -8 188 -121q6 -27 21 -27h4q23 0 22 9v4q-2 2 -2 4q-16 102 -16 188q0 84 16 176q0 4 2 9v4q0 6 -16 6h-2t-6 -4q-8 -14 -29 -35q-82 -78 -186 -109q-101 -28 -260 -28 h-11h-385q-66 0 -65 59q6 121 14 178q0 4 4 31q8 68 12 90q6 35 29 78q25 49 105 49q20 0 90 -2q39 0 90 -2q135 -4 252 -14q133 -12 256 -37q123 -27 196 -84q37 -37 82 -37h15q6 0 14 4q-4 -4 -4 -10q0 2 -2 2l-2 2q-51 51 -94 106q-27 35 -93 105q-10 12 -39 20 q-31 10 -47 11h-14q-8 -1 -10 -3q-274 0 -494 -8q-215 -8 -485 -8q-102 0 -195 14q-4 0 -4 -4q0 -27 2 -26q33 0 74 -70q29 -57 47 -219q14 -94 14 -291q0 -39 -2 -104q-2 -90 -2 -129q-10 -367 -32 -514q-25 -160 -48 -207q-33 -63 -61 -64z" />
<glyph unicode="F" horiz-adv-x="1470" d="M41 1677q0 -27 2 -26q33 0 74 -70q29 -57 47 -221q14 -102 14 -320v-92q-2 -59 -2 -112v-7q-4 -20 -4 -32v-35q-8 -319 -29 -467q-18 -139 -37 -186q-27 -55 -53 -56q10 0 10 -24h5q104 10 196 12q59 0 111 -8q61 -6 102 -13h6v29q-20 6 -49 43q-23 29 -45 123 q-18 90 -24 301q0 68 -7 141q-2 37 -2 172v97q2 31 2 80q0 55 52 55l331 -4q113 -2 244 -13q150 -12 189 -122q6 -27 20 -27h2q23 0 23 6v6l-2 4q-16 102 -17 189q0 86 17 178q0 4 2 8v4q0 6 -15 6h-4q-4 0 -6 -2q-6 -12 -27 -37q-80 -78 -188 -108q-104 -29 -272 -29 l-277 4q-66 0 -65 60q8 123 14 184q2 14 4 29q6 72 12 98q6 35 29 78q25 49 106 49q61 -2 166 -6q106 -2 219 -19q115 -12 224 -43q106 -29 180 -84q36 -36 80 -36h2h16q8 0 13 4q-4 -2 -5 -8h-2q-53 53 -96 108q-43 53 -92 104q-10 12 -39 21q-31 10 -47 10h-14 q-8 0 -13 -2q-311 0 -444 -2q-131 -2 -438 -2q-100 0 -195 14q-4 0 -4 -4z" />
<glyph unicode="G" horiz-adv-x="1748" d="M41 854q0 -342 248 -582q249 -239 597 -239h3q141 0 350 55q205 53 322 127q41 14 41 27q-12 23 -25 61q0 227 3 342t9 176q14 152 41 201q29 51 72 51q6 0 6 33q0 -2 -2 -2l-4 -2q-4 4 -12 4q-31 -2 -101 -6q-37 -2 -102 -2h-101q-51 0 -104 6q-10 0 -10 2v-25 q25 -6 55 -49q25 -37 43 -149q23 -99 25 -326q-6 -92 -9.5 -155.5t-3.5 -116.5q0 -72 -100 -115q-66 -25 -127 -39q-51 -8 -145 -18q-244 0 -482 198q-115 98 -171 228.5t-56 304.5v28q-2 25 -2 29q0 293 160 490q178 215 424 215q6 0 35 2h32q158 0 281 -47 q164 -59 338 -220q14 -39 37 -38h18q2 0 2 -3q0 2 2 7v6t-4 18q-47 92 -63 150q-14 41 -58 71q-170 86 -311 105q-141 20 -303 20q-301 0 -576 -223q-272 -221 -272 -600z" />
<glyph unicode="H" horiz-adv-x="1601" d="M41 55q12 0 12 -26h4q111 12 195 12q96 0 197 -12h6q0 31 4 30q-29 0 -64 66q-23 47 -41 209q-12 109 -12 325q0 10 2 82v99v92q0 59 2 86q0 16 2 26q6 35 60 35q47 -2 104 -2t104 -2q68 -2 209 -2h181q92 0 184 6q59 0 61 -39q2 -10 2 -24q0 -119 -2 -187 q-10 -365 -26 -505q-18 -160 -35 -205q-27 -66 -53 -66q12 0 12 -24h4q104 12 197 12q90 0 196 -12h6q0 31 4 30q-29 0 -63 66q-25 53 -43 207q-12 115 -12 336q0 12 2 80v90q4 375 22 540q18 164 39 209q29 59 60 60q-8 0 -9 28q0 4 -6 4q-98 -14 -196 -14q-90 0 -197 14 q-4 0 -4 -4v-22q27 -6 53 -43q25 -35 39 -115q8 -27 10 -77t2 -187q0 -74 -57 -74q-43 2 -92 2q-78 2 -94 2q-61 2 -185 2q-72 0 -207 -4q-47 -2 -102 -2q-84 -2 -102 -2q-59 0 -60 64q4 207 19 286q18 88 39 111q27 29 49 33q-6 0 -6 28q0 4 -6 4q-94 -14 -197 -14 q-102 0 -195 14q-4 0 -4 -4v-28q31 -2 62 -76q23 -57 35 -219q10 -109 10 -277q0 -39 -2 -108q-2 -96 -2 -140q-12 -379 -29 -505q-14 -143 -33 -203q-31 -66 -53 -66z" />
<glyph unicode="I" horiz-adv-x="505" d="M41 53q12 0 12 -24h2q104 10 197 12q96 0 197 -12h6q0 31 6 30q-31 0 -66 62q-23 43 -41 207q-12 111 -12 329q0 10 2 84v99q4 373 23 538q18 164 39 209q29 59 59 60q-10 0 -10 30q0 4 -6 4q-94 -14 -197 -14t-197 14q-2 0 -2 -4v-28q31 -2 62 -76q23 -57 35 -219 q10 -109 10 -277q0 -39 -2 -108q-2 -96 -2 -140q-12 -383 -29 -510q-14 -143 -33 -202q-29 -63 -53 -64z" />
<glyph unicode="J" horiz-adv-x="860" d="M41 -348q0 -14 10 -25q8 -8 25 -8q80 12 149 45q66 29 156 76q80 45 160 113q82 72 204 137q6 0 19 18q10 10 10 45q-8 100 -18 119q-12 16 -21 43q-6 31 -16 176v2q-10 203 -14 445q-8 129 -9 333q0 129 6 205q18 166 46 213q33 57 71 58q-2 0 -2 30q0 4 -6 4 q-98 -14 -197 -14q-98 0 -196 14q-16 0 -17 -2q0 -29 2 -30q33 -4 66 -74q27 -57 41 -219q10 -68 10 -297v-103q-2 -68 -2 -127q-10 -346 -22 -479q-14 -164 -31 -241q-18 -82 -31 -105q-8 -12 -16 -45q-70 -106 -160 -170q-98 -66 -172 -94q-18 -6 -33 -17q-12 -12 -12 -26 z" />
<glyph unicode="K" horiz-adv-x="1552" d="M41 53q2 -8 2 -24h4q111 12 195 12q96 0 196 -12q16 0 23 2q2 0 2 -6q0 23 4 22q-27 0 -61 35q-23 27 -46 123q-16 92 -16 309q0 78 14 90q4 4 9 8q23 25 49 50l43 43q23 23 22 22q29 31 78 70q10 10 19 16q0 10 9 13t25 3q25 0 62 -45q225 -303 301 -440 q78 -135 78 -190q-4 -70 -60 -82q-18 -6 -18 -41h16q12 -2 39 -2q61 4 139 4h142q63 0 90 -2q31 0 57 2h25v4q0 4 -2 8l-2 2q-14 37 -27 37q-23 0 -80 45q-45 39 -160 193q-106 145 -325 503q-12 16 -33 54q-21 33 -29 47q-16 25 -28 51q-4 8 -4 27q0 39 45 86 q289 291 393 383q125 111 168 135q55 26 66 26h1l7 -2q8 0 38 43q-2 -2 -2 -8q-2 2 -4 2q-6 10 -12 10q-37 -4 -115 -8q-39 -2 -104 -2q-76 0 -131 2q-92 4 -125 10q-18 0 -37 -18q-4 -12 -4 -16q0 -2 12 -2q80 -8 80 -91q0 -61 -127 -237q-125 -170 -506 -535 q-49 -37 -67 -37l-15 7q-18 23 -20 45v43q-4 96 -4 256q0 180 10 293q18 166 47 217q33 55 72 55q6 0 6 27q0 -10 2 -11l-8 2q-14 2 -21 2q-106 -14 -196 -14q-102 0 -195 14q-4 0 -4 -4v-28q33 -4 66 -74q23 -57 36 -221q10 -68 11 -289v-104q-2 -68 -2 -132 q-12 -352 -31 -503q-18 -158 -37 -211q-27 -61 -45 -62z" />
<glyph unicode="L" horiz-adv-x="1478" d="M41 53q8 0 8 -24h6q100 10 183 12q63 0 100 -2h6q279 -8 420 -8h420q45 2 71 49q6 12 17 29q10 14 16 26q12 20 37 58q23 37 57 67q37 37 52 62q4 4 4 18v12q-2 8 -2 10h-11h-16q-59 0 -92 -57q-25 -39 -203 -125q-170 -78 -362 -82h-107h-110q-76 0 -99 23t-35 67 q-16 66 -26 224q-6 66 -6 256q0 10 2 80v92q4 383 24 538q25 162 49 211q33 57 68 58q-6 0 -6 30q0 -2 -2 -2l-4 -2q-14 8 -25 8q-57 -8 -117 -10h-18q-80 -4 -102 -4h-80q-16 0 -62 6q-8 0 -18 2q-8 0 -17 2q14 0 15 -4q0 -29 -2 -28q29 -2 59 -72q18 -47 35 -219 q10 -109 10 -277q0 -39 -2 -108q-2 -96 -2 -140q-8 -358 -31 -510q-23 -164 -41 -204q-33 -61 -61 -62z" />
<glyph unicode="M" horiz-adv-x="2064" d="M41 1675q12 -39 37 -51q35 -14 74 -25q47 -12 88 -38q49 -29 75 -115q10 -37 16.5 -88t6.5 -131v-398q0 -199 -5 -323.5t-16 -194.5q-25 -162 -53 -207q-39 -57 -71 -57v-22h16q61 4 113 4q43 2 114 2q47 0 64 -4q12 0 57 -7h6v33q-33 4 -67 66q-27 51 -50 213 q-14 133 -14 348q0 10 2 74v86q0 74 -2 137v29q0 94 8 204q2 45 23 66q27 0 76 -57q25 -43 49 -86q51 -92 84 -152q14 -25 86 -150q70 -127 84 -151q84 -162 147 -289q6 -8 31 -43q37 -51 41 -57q0 -2 2 -4q0 -4 2 -4q2 4 2 12l70 133q145 283 198 387t199 387l70 133 q27 33 51 33l10 -6q31 -12 31 -43q-4 -57 -15 -168q-2 -12 -6 -51q-10 -133 -10 -271q0 -217 -3 -339.5t-11 -194.5q-14 -156 -37 -203q-39 -49 -64 -49l-2 2l-6 2q20 0 21 -18h4q102 10 196 12q84 0 195 -12h8q0 27 6 26q-31 0 -61 58q-23 51 -41 206q-16 164 -17 521 q0 207 6.5 338t16.5 204q29 164 61 209q41 49 78 49l8 -2q-4 0 -4 27q0 2 4 2q-37 -4 -131 -8q-51 0 -81.5 2t-53.5 6q-14 4 -35 4q-12 0 -14 -2q-160 -240 -287 -489q-117 -229 -274 -506q-20 -20 -35 -21q-12 0 -33 17q-188 340 -278 514q-139 240 -289 458q-2 12 -10 21 h-101q-98 -4 -131 -6q-51 0 -110 4h-4q-35 6 -86 12l-23 2h-6z" />
<glyph unicode="N" horiz-adv-x="1742" d="M41 1696q12 -43 39 -51q35 -14 82 -25q47 -8 94 -35q51 -27 82 -117q18 -51 18 -141q0 -16 -2 -41q-2 -35 -2 -51q-4 -66 -7 -162t-3 -248q0 -201 -5 -322.5t-18 -193.5q-25 -160 -55 -209q-41 -53 -76 -53q-2 0 -2 -22h17q66 4 112 4q43 2 115 2q43 0 72 -4q20 0 69 -7 q6 0 7 -2q-2 43 -11 43q-45 0 -78 45q-33 47 -51 199q-8 55 -8 236q0 125 6 293q0 39 2 96q2 78 2 114q6 164 13 246q8 47 24 66q31 0 74 -58q49 -84 170 -256q90 -129 270 -378q86 -119 260 -357l15 -18q49 -66 123 -166q49 -68 65 -88v2q-18 0 -31 -2q8 2 9 2q14 2 20 2 q2 -4 4 -4q10 -16 12 -17q8 -20 29 -20q10 0 25 6q20 4 30 12q-4 82 -4 166v234q0 86 4 237q2 49 2 90q2 70 2 91q2 377 27 552q25 166 49 211q35 55 70 56v28q0 4 -6 5q-41 -4 -84 -13q-39 -6 -88 -6q-100 0 -199 14q-2 0 -2 -4q0 -25 2 -24q37 0 78 -64q29 -49 51 -221 q16 -119 16 -313q0 -37 -2 -103q-2 -86 -2 -123v-12q-4 -104 -4 -145q0 -51 -4 -133q0 -84 -51 -84q-14 4 -23 14q-25 25 -49 61q-96 139 -194 279q-39 55 -109 154q-70 96 -108 151q-27 37 -93 129q-82 115 -114 160q-86 117 -164 239q-2 12 -10 21q-10 6 -99 8 q-18 0 -47 2h-32q-14 0 -33 -2h-19q-59 0 -135 8q-35 4 -61 7q-59 6 -70 8q-6 0 -6 2z" />
<glyph unicode="O" horiz-adv-x="1781" d="M41 854q0 -342 248 -582q249 -239 597 -239h3q354 0 602 239q250 242 250 582q0 166 -78 315q-76 150 -199 263t-274 180q-154 65 -301 65t-301 -65q-154 -70 -275 -180q-123 -113 -198 -263q-74 -147 -74 -315zM301 844q0 289 170 499q176 259 420 259q246 0 424 -203 q86 -94 127 -229.5t41 -325.5q-8 -352 -178 -553t-414 -201q-246 0 -420 223q-170 223 -170 531z" />
<glyph unicode="P" horiz-adv-x="1472" d="M41 51q8 0 8 -22h2q104 10 197 12q96 0 196 -12h7q0 25 -2 28q-2 2 -11 9l-12 12q-18 18 -35 53q-16 35 -33 135v15q-2 10 -2 12q0 59 54 78q27 8 79 20q25 6 31 8q422 96 670 295q242 193 242 402q0 238 -125 358q-129 125 -308 174q-178 49 -387 49q-190 0 -364 -10 q-103 0 -197 14q-2 0 -2 -4v-28q31 -2 62 -76q23 -57 34 -219q10 -109 11 -277q0 -39 -2 -108q-2 -96 -2 -140q-6 -375 -21 -512q-16 -160 -33 -204q-27 -61 -57 -62zM340 668v172q4 313 18 469q8 90 25 215q2 10 2 12q6 29 27 53q8 14 25.5 19.5t58.5 5.5q438 -25 561 -182 q125 -152 125 -349q0 -186 -238 -370q-223 -176 -487 -260q-16 -6 -41 -7q-35 0 -47 23q-12 25 -19 57q-8 84 -10 142z" />
<glyph unicode="Q" horiz-adv-x="1781" d="M41 854q0 -201 88 -375t240 -284q49 -39 108 -74q57 -35 137 -74q18 0 23.5 -10t5.5 -27q0 -14 -16 -35q-2 -6 -25 -30q-8 -12 -39 -49q-8 -8 -14 -17q-20 -20 -43 -45t-41 -41q-23 -18 -23 -26q0 10 -8 14q20 -8 27 -47v8q4 0 10 2q8 2 12 2q49 49 181 49 q123 -4 258 -24q100 -16 252 -47q98 -20 135 -21q4 0 10 2h8q10 2 62 37q14 8 20 12q74 45 111 68q20 12 43 24q55 35 84 54l6 -9q12 0 30 66q0 14 -18 14q-127 -88 -369 -100q-156 0 -276.5 11t-241.5 36q-49 12 -55 31q-4 20 -4 35q0 53 67 53h11q6 -2 8 -2q29 -2 84 -2 q354 0 602 239q250 242 250 582q0 166 -78 315q-76 150 -199 263t-274 180q-152 65 -297 65h-4q-147 0 -301 -65q-154 -70 -275 -180q-123 -113 -198 -263q-74 -147 -74 -315zM301 844q0 289 170 499q176 259 420 259q246 0 424 -203q86 -94 127 -229.5t41 -325.5 q-8 -352 -178 -553t-414 -201q-246 0 -420 223q-170 223 -170 531z" />
<glyph unicode="R" horiz-adv-x="1497" d="M41 51q8 0 8 -22h2q104 10 197 12q96 0 196 -12h7q0 25 -2 28q-2 2 -11 9l-12 12q-18 18 -35 53q-16 35 -33 135q0 4 -2 15v12q0 59 56 78q29 8 88 24l20 4l8 2q31 6 50 13l55 12q55 16 102 16q37 -2 117 -98q96 -127 123 -176q20 -41 20 -78q-12 -27 -43 -41q2 0 2 -8 v-6q2 -6 2 -10q4 4 27 4h57q104 12 189 12h6q68 -8 98 -8q49 0 107 10v-18q0 4 -6 6q-18 37 -31 37q-27 4 -68 28q-45 29 -118 105q-85 92 -220 280q-16 23 -16 41q0 31 39 58q39 23 96 59q147 98 248 223q92 117 92 234q0 236 -127 358q-129 123 -315 172q-184 51 -398 51 q-195 0 -368 -10q-102 0 -197 14q-2 0 -2 -4v-28q31 -2 62 -76q23 -57 34 -219q10 -109 11 -277q0 -39 -2 -108q-2 -96 -2 -140q-6 -375 -21 -512q-16 -160 -33 -204q-27 -61 -57 -62zM340 668v172q4 313 18 469q8 90 25 215q2 10 2 12q6 29 27 53q8 14 25.5 19.5t58.5 5.5 q238 -12 376 -60q143 -51 207 -120q70 -74 86 -168t17 -183q0 -186 -238 -370q-229 -178 -489 -260q-16 -4 -37 -4q-39 0 -49 22q-12 23 -19 55q-8 84 -10 142z" />
<glyph unicode="S" horiz-adv-x="1441" d="M41 340q0 -55 31 -66q106 -98 297 -174q183 -71 397 -71h6q233 0 434 155q195 152 195 410q-6 180 -88 280q-82 104 -207 166q-117 59 -275 103q-158 43 -288 94q-72 29 -142 76q-82 55 -82 119q0 82 84 137q76 51 185 51q16 4 47 4q113 0 270 -96q193 -117 238 -246 q12 -41 49 -41q10 0 18 8q4 4 4 6t-2 7q-2 4 -2 6q-29 66 -47 116q-20 61 -37 127q-12 45 -47 45q-4 2 -14 3q-10 0 -16 2q-10 2 -25 2q-143 104 -358 123v2q-223 -2 -367 -72q-127 -63 -139 -260q0 -92 69 -160q80 -78 187 -133q106 -55 246 -94q166 -47 264 -84 q123 -55 204 -176q88 -84 89 -199q0 -164 -152 -285q-178 -108 -323 -108h-3l-4 -6q33 4 49 6q-154 0 -265 38t-197 117q-178 168 -209 322q0 61 -31 61q-29 0 -29 -63q0 -72 -8 -129q-6 -61 -6 -123z" />
<glyph unicode="T" horiz-adv-x="1619" d="M41 1380q0 -4 4 -16q6 -10 21 -10h2q59 0 84 49q51 86 206 145q160 59 250 72q6 0 17 2h10q23 0 32 -4t9 -23q2 -4 6 -30q0 -6 2 -15q10 -66 16 -254q0 -213 -2 -376v-91q-12 -350 -34 -510q-20 -147 -46 -202q-31 -63 -61 -64q10 0 10 -24h6q18 2 39 4q45 2 70 4h18 q70 4 95 4q98 0 211 -12h6q0 31 4 30q-29 0 -66 66q-23 49 -45 207q-18 152 -18 508q0 313 8 460q10 178 20 254q6 37 11 48q0 14 9 17t30 3h10q10 -2 16 -2q92 -12 242 -61q162 -53 219 -150q29 -55 90 -55q18 0 31 14q6 6 6 10t-6 11q-39 59 -98 129q-66 82 -89 147 q-12 31 -63 31q-223 -8 -485 -19q-61 -4 -195 -4q-177 1 -367 13q-14 0 -20 8q6 -6 14 -6h-57q-14 0 -27 -52q-20 -55 -63 -120q-55 -84 -82 -127v-9z" />
<glyph unicode="U" horiz-adv-x="1570" d="M41 1655q31 -2 61 -72q23 -57 35 -219q10 -109 10 -279q0 -39 -2 -108q-2 -96 -2 -139q-4 -66 -8 -156v-12q-2 -27 -2 -56q-2 -47 -2 -57h2v-61v-35q4 -268 92 -359q83 -79 224 -79h4q147 6 321 73q193 72 359 109q35 6 63 6q0 -31 -6 -61q-31 -98 -72 -99v-26h4 q111 12 197 12t197 -12h6q0 31 6 30q-31 0 -66 62q-23 43 -41 207q-6 63 -9 175.5t-3 336.5q4 373 23 538q18 164 38 209q29 59 60 59q-8 0 -8 31q0 4 8 4q-8 -2 -14 -2q-104 -12 -197 -12q-92 0 -197 12q-2 0 -4 2h-4q4 0 4 -4v-28q31 -2 62 -76q18 -47 34 -219 q10 -61 11 -258q0 -43 -2 -117q-2 -102 -2 -150v-80q-2 -84 -2 -170q2 -72 2 -186q0 -72 -131 -115q-135 -45 -250 -71q-141 -33 -236 -35q-80 0 -126 9t-72 28q-61 41 -68 313h-6q-2 49 -2 162q0 106 2 168q2 369 26 536q27 166 48 207q29 53 67 54q-6 0 -6 28q0 2 -10 6 q-10 8 -21 9q-100 -12 -196 -13q-82 0 -197 13h-2v-33z" />
<glyph unicode="V" horiz-adv-x="1632" d="M41 1686q115 -12 203 -13h131q70 0 131 8q14 0 16 -10q6 -18 6 -29q0 2 2 3q-53 0 -71 -64q0 -4 -2 -12q-2 -12 -2 -23q0 -53 28 -178q39 -158 205 -553q16 -45 41 -110q23 -59 23 -62q14 -43 39 -111l12 -30q33 -61 49 -70q31 0 68 66q25 66 55 153q10 27 24 66 q29 78 43 114q145 385 175 535q22 112 22 164q0 47 -8 61q-23 63 -74 64q0 10 4 16q0 10 15 10q41 -8 112 -8h113h92q39 0 96 10q2 0 2 13h-2q-25 -55 -37 -56q-29 0 -75 -55q-37 -53 -105 -223q-70 -150 -203 -500q-45 -129 -96 -248q-45 -104 -74 -184q-2 -2 -12 -31 q-6 -16 -10 -28q-20 -61 -43 -115q-27 -70 -43 -113q-12 -35 -19 -51q-29 -78 -67 -78q-47 0 -64 74q-82 242 -125 363q-86 242 -129 364q-147 401 -223 559q-80 174 -121 225q-49 59 -77 60q-12 0 -21 33v8q0 -14 -4 -14z" />
<glyph unicode="W" horiz-adv-x="2154" d="M41 1696q55 -6 90 -13q41 -6 92 -6q76 0 131 -2q61 0 88 1t45 5q8 2 23 9q2 0 6 2q-23 0 -22 12q6 -25 6 -39q0 4 8 4q-51 0 -70 -70q0 -4 -2 -14q-2 -14 -2 -26q0 -59 25 -181q37 -166 184 -563q25 -61 45 -127q20 -70 31 -102q27 -55 49 -56q29 1 47 62q49 201 123 504 q72 307 98 495q6 51 27 82q14 27 37 27t35 -25q20 -35 30 -78q59 -264 129 -528l21 -78q82 -299 123 -444q6 -25 24 -43l15 -6q25 0 49 47q4 14 22 73q8 27 17 56q20 74 49 143q137 373 172 539q24 107 24 167q0 48 -8 62q-25 70 -73 70v6v8q2 6 2 10q4 6 14 7 q86 -12 180 -13h92q39 0 94 10q2 0 3 13q0 -2 -3 -2q-23 -53 -28 -54q-25 0 -64 -57q-23 -39 -88 -201q-39 -94 -176 -469q-10 -29 -18 -51l-6 -18q-61 -170 -82 -240q-23 -72 -58 -174q0 -2 -6 -18q0 -6 -14 -50q-14 -43 -31 -108q-2 -12 -20 -72q-14 -51 -25 -84 q-25 -72 -63 -75q-45 0 -68 53l-129 467q-76 281 -131 469q-29 47 -53 47l-11 -10q-16 -16 -20 -43q-41 -201 -109 -478q-43 -170 -120 -510h-7h-26q-57 0 -76 76q-78 242 -117 359q-68 205 -125 362q-131 397 -196 569q-61 166 -92 207q-33 49 -66 49q-14 0 -39 58 q0 2 -2 6l-2 2q0 -10 -2 -10z" />
<glyph unicode="X" horiz-adv-x="1677" d="M41 29q4 0 4 -19q0 4 6 6q27 43 35 45q16 6 78 64q61 61 174 203q121 147 362 485q31 37 31 74q0 35 -22 69q-203 313 -303 453q-98 135 -142 178q-49 47 -71 47q-8 0 -33 33v16q-2 -2 -8 -2q102 -14 206 -14q29 0 99 2q16 2 32 2q92 6 129 15q18 0 29 10q8 -25 8 -45 q0 10 7 10q-45 -2 -70 -49q-8 -10 -8 -39q0 -37 24 -111q41 -102 201 -323q47 -55 63 -64q31 0 84 55q168 221 203 318q20 59 21 96q0 39 -15 53q-27 43 -73 56v-4q0 20 6 47q10 -10 28 -10q49 -6 121 -13q78 -6 125 -6q102 0 205 14q-4 0 -4 15q0 -2 -6 -6q-20 -29 -39 -41 q-20 0 -62 -41q-47 -39 -145 -160q-106 -129 -320 -426q-31 -47 -30 -90q0 -47 35 -98q207 -326 315 -469q106 -145 166 -211q66 -66 88 -78q23 -6 55 -33q2 -12 2 -31q0 16 4 17q-111 12 -204 12q-59 0 -158 -8q-109 -6 -152 -13q-16 0 -26 13l-2 2q-8 16 -9 20 q0 -10 -4 -10q53 0 78 57q8 20 8 37q0 51 -37 144q-51 131 -249 417q-27 39 -58 39q-33 0 -59 -39q-229 -309 -277 -419q-43 -98 -43 -146q0 -25 9 -37q25 -49 79 -49q-4 0 -4 10q0 -10 -14 -24q-8 -14 -29 -15q-45 6 -129 13q-76 8 -135 8q-49 0 -90 -6q-47 -4 -90 -6z" />
<glyph unicode="Y" horiz-adv-x="1669" d="M41 1690q29 -55 51 -72q25 -16 84 -90q55 -68 141 -217q76 -129 238 -471q16 -33 35 -72q70 -150 94 -203q20 -39 21 -76q0 -18 -7 -28q0 -2 -6 -12q-12 -25 -22 -43q-96 -162 -148 -230q-49 -68 -76 -88q-29 -23 -51 -27q-10 -4 -30 -32q4 0 4 2v-27q0 25 -2 25 q23 2 51 4q27 2 49 4q70 4 102 4q41 0 117 -10q20 -2 66 -8q31 -4 43 -7q18 0 24 15q8 8 8 22v-2q-53 6 -75 74q-4 10 -4 39q0 63 43 188q57 162 266 516q236 397 327 533q109 162 146 205q57 53 72 53q6 0 20 45h2q0 -12 4 -12q-49 -2 -98 -13q-47 -8 -103 -8q-47 0 -120 6 q-39 6 -99 11h-12q-20 0 -27 -13q-2 -8 -2 -18q0 -2 2 -2q59 -6 82 -84q0 -2 2 -15v-16q0 -70 -47 -199q-59 -166 -280 -524q-47 -72 -76 -72q-31 0 -62 46l-4 4q-8 12 -10 18q-2 4 -4 10t-4 11q-211 383 -270 536q-53 139 -54 215q10 68 72 68q4 0 4 6q0 4 -2 10 q-2 8 -2 12q-2 6 -22 7q-47 -6 -125 -13q-16 0 -31 -2q-70 -2 -98 -2q-63 0 -88 2q-39 4 -91 13q-8 0 -16 -9v13h-2z" />
<glyph unicode="Z" horiz-adv-x="1564" d="M41 47q0 -2 2 -8t2 -10q6 -12 23 -13q106 8 227 10.5t344 2.5q381 -4 573 -4q43 0 58 6q23 16 45 47q31 45 74 102q29 39 100 99q29 23 35 59q0 27 -29 27q-23 0 -45 -25q-23 -25 -57 -55q-86 -66 -219 -109q-117 -39 -236 -57q-109 -18 -193 -25q-41 -2 -73 -4h-17 q-76 0 -110 2q-37 0 -74 -2h-31q-27 0 -36 10.5t-9 42.5q8 31 17 43q92 158 211 328q127 182 223 328q115 174 270 397q127 180 297 387q33 33 33 51h-19q-31 0 -155 -2q-41 0 -94 -2q-121 -4 -355 -8h-321q-150 4 -162 14q-23 -4 -47 -59q-20 -37 -62 -107 q-35 -61 -71 -104q-16 -20 -17 -41q0 -4 11 -4q25 0 51 25q33 31 57 57q49 61 256 127q152 47 344 47q76 0 142 -8q4 -2 24 -4q2 0 19 -4q43 0 43 -48q0 -18 -17 -47q-94 -162 -199 -313q-47 -70 -108 -158t-109 -157q-111 -166 -284 -406q-135 -184 -318 -391 q-14 -18 -14 -37z" />
<glyph unicode="[" horiz-adv-x="223" d="M41 -127h141v21h-123v1916h123v19h-141v-1956z" />
<glyph unicode="\" horiz-adv-x="669" d="M41 1616l580 -1544h8l-578 1544h-10z" />
<glyph unicode="]" horiz-adv-x="223" d="M41 -106v-21h141v1956h-141v-19h123v-1916h-123z" />
<glyph unicode="_" horiz-adv-x="1110" d="M41 -104v-5h1028v5h-1028z" />
<glyph unicode="`" horiz-adv-x="169" d="M41 1681l39 -94q25 -78 49 -78q-6 0 -6 -2q0 20 -19 60l-45 114h-18z" />
<glyph unicode="a" horiz-adv-x="1169" d="M41 348q0 -217 186 -291q99 -34 192 -34h5q111 0 227 43q23 6 39 20q31 23 53 33l15 6q12 6 18 8q39 0 39 -37v-6q-2 -6 -2 -8l-4 -39q0 -27 2 -39v27q29 2 72 2h67q39 0 88 -4h6q47 -4 76 -9q8 0 8 -10q0 4 -6 10q-4 31 -12 33q-25 10 -45 41t-35 111q-10 70 -14 264 l2 84q2 162 2 213q0 92 4 158q2 8 2 22q2 14 2 21v14q2 4 2 14q0 2 8 2q-16 0 -16 13q-113 72 -231 102q-129 35 -240 35q-215 0 -426 -164q2 -2 2 -4q0 -10 14 -25q14 -12 35 -18q4 -2 8 -2q-10 0 -10 -10q131 143 367 143q61 -2 151 -18q98 -18 123 -68q23 -45 25 -90 q0 -96 -107 -96q-10 2 -20 2q-12 0 -23 2q-14 2 -43 2q-258 0 -440 -86q-166 -80 -166 -367zM266 387q0 152 109 260q111 111 379 113q12 0 43 -10q39 -8 39 -88q0 -37 -2 -58q-2 -14 -3 -31q0 -16 -2 -30v-13q-4 -63 -4 -94v-49q-2 -37 -2 -43v-6q-4 -39 -8 -59 q-6 -41 -47 -70q-4 -4 -18 -16l-7 -5q-18 -12 -30 -18q-111 -61 -199 -61q-63 0 -125 36q-123 84 -123 242z" />
<glyph unicode="b" horiz-adv-x="1189" d="M41 1675q4 2 4 6q6 -25 16 -24q39 0 68 -60q25 -53 37 -219q8 -131 8 -276q0 -43 -2 -119q-2 -106 -2 -154q-10 -360 -20 -491q-12 -154 -29 -213q-25 -72 -51 -76q-2 -2 -7 -31q0 -6 -2 -14q0 16 5 16q25 4 100 5q33 -2 96 -2q12 0 62 2l26 2q4 0 31 2h33h35 q26 -2 32 -2q25 0 37 -2h35q256 0 426 163q170 168 170 433q0 264 -164 393q-168 133 -367 139q-86 0 -110 -25q-37 -37 -100 -43q-55 0 -56 68q4 236 6 324q4 86 7 110q16 55 32 55q-6 0 -16 25q0 2 -2 4q0 6 -14 6q-31 -4 -48 -4q-16 2 -47 2h-104q-59 0 -109 6 q-6 0 -16 -6zM342 469q0 115 2 240q2 94 2 131v49v49q0 4 2 16l2 17q6 31 35 49q98 61 172 61q156 0 258 -96q104 -88 105 -407q-14 -299 -129 -398q-109 -96 -265 -106q-20 0 -32 2q-8 2 -17 2q-10 0 -18 2q-90 12 -107 162q-8 102 -10 227z" />
<glyph unicode="c" horiz-adv-x="1009" d="M41 580q0 -233 137 -402q137 -162 375 -162q111 4 205 62q94 59 174 151l4 4l2 3l6 10l4 4t13 31q2 6 4 10q4 12 4 16q0 -2 -2 -4q-3 49 -23 49q-16 0 -35 -43q-53 -80 -139 -121q-86 -39 -174 -41q-150 0 -266 154q-111 154 -121 299q0 55 6 117q10 84 39 155 q29 76 94 142q63 63 174 63q72 0 121 -37q45 -33 76 -75q37 -51 37 -76q0 -20 -19 -33q-6 -8 -6 -65q0 -14 10 -21v2q2 0 4 2q35 31 80 68q51 41 90 53q25 10 25 57q0 14 -29 37q-25 23 -55 53q-109 106 -287 107q-190 0 -360 -166q-168 -168 -168 -403z" />
<glyph unicode="d" horiz-adv-x="1179" d="M41 543q0 -231 129 -383q129 -147 295 -148q88 0 192 62l23 14q35 20 47 27q10 8 23 8q41 0 53 -80q0 -6 10 -12q10 -10 14 -11q39 4 78 5q0 -2 21 -2q66 0 98 2q31 0 68 -2q18 -2 28 -3q4 0 10 11q8 2 9 6v2q-6 14 -19 14q-45 0 -78 64q-27 51 -43 213q-12 115 -12 332 q0 12 2 81v97q4 379 6 534q2 104 2 203v49q4 16 9 53q0 8 -5 9h-4q-4 -2 -6 -2q-4 0 -14 -3q-33 -4 -39 -8q-14 -8 -72 -8q-51 0 -94 6q-45 6 -88 13q-4 0 -10 -9h-2q10 -25 22 -24q39 0 72 -37q31 -33 45 -139q10 -39 10 -172q0 -27 -2 -76q-2 -70 -2 -103q0 -47 -22 -65 q-6 -12 -35 -12t-68 18l-24 12q-39 20 -58 29q-39 23 -96 25q-221 0 -344 -175q-129 -184 -129 -415zM213 666q0 164 84 266q109 127 246 127q121 0 205 -84q41 -41 55 -76q14 -31 14 -88q-2 -57 -4 -184q-6 -156 -6 -197q0 -72 -2 -98q0 -45 -43 -105q-76 -90 -189 -90 q-2 0 -18 2h-23q-127 18 -210 127q-84 109 -105 322q-4 29 -4 78z" />
<glyph unicode="e" horiz-adv-x="1005" d="M41 580q0 -260 143 -410q147 -154 355 -154q109 4 219 72q111 70 184 191l12 18q4 10 7 16q4 8 4 23q0 20 -21 29q-2 2 -8 2q-10 0 -27 -13q-23 -14 -32 -35q-37 -68 -95 -112q-57 -45 -147 -51q-84 0 -152.5 27.5t-130.5 86.5q-33 31 -33 62q0 28 29 55q86 84 203 186 q45 39 100 86t101 86l139 134q4 2 8 12l2 4l2 4v4q0 18 -14 35q-63 90 -156 147q-86 57 -192 60q-158 0 -322 -152q-172 -160 -178 -413zM188 586q0 145 56 280q61 178 252 178q94 0 131 -51q29 -39 57 -110q10 -16 10 -41q0 -29 -16 -43q-19 -19 -25 -27q-82 -92 -164 -160 q-70 -57 -161 -149q-23 -20 -49 -21q-27 0 -54 27q-37 43 -37 117z" />
<glyph unicode="f" horiz-adv-x="792" d="M41 1024q0 -2 2 -4h4q25 0 82 2q12 2 27 2q76 0 75 -78v-55v-62q-6 -358 -20 -499q-16 -162 -35 -211q-31 -70 -63 -72q-8 -2 -15 -31v-2l-2 -4q0 10 6 10q49 6 101 7h96h96q51 0 101 -7q8 0 8 -18q-2 8 -2 14q-4 23 -8 23q-31 4 -56 78q-16 51 -28 217q-8 152 -9 332 q0 10 2 79v95v57v55q0 55 25 62q16 6 37 6q45 -4 70 -6q23 -2 67 -2q12 0 21 6q12 12 14 18l4 8q0 4 2 9q2 2 2 8q0 4 2 6l6 18q2 4 2 7q0 2 2 4l2 6v4v2q-4 4 -8 4q-113 0 -188 -8q-57 0 -57 59q2 49 2 129v109l-5 -4q4 4 5 12q0 113 20 141q27 39 59 39q35 0 60 -80 q18 -43 18 -100v-4v-2v-4q-2 -4 -2 -6q0 12 -8 12q6 -16 14 -16q2 0 6 2t7 2q20 10 26 16q33 33 64 49q14 6 30 17q16 10 31 16q18 12 19 55q0 2 -4 6q-29 133 -191 134q-88 0 -201 -82q-76 -57 -129 -119q-16 -27 -16 -51q0 -12 2 -23q4 -25 6 -35q4 -31 8 -92 q2 -33 2 -106q0 -68 -69 -68q-10 2 -33 2h-35q-10 0 -20 -10q-8 -6 -13 -19l-6 -18q-2 -8 -4 -10q0 -4 -2 -17l-2 -4l-2 -4t-2 -6z" />
<glyph unicode="g" horiz-adv-x="1257" d="M41 758q0 -98 51 -170q57 -80 150 -127q12 -20 22 -33l8 -12q8 -12 9 -21q0 -4 -2 -8t-3 -8q-8 -18 -57 -53q-14 -10 -29 -21q-14 -10 -22 -14q-18 -14 -55 -47q-25 -25 -60 -49q6 2 6 6q0 -2 7 -8q10 -18 20 -19q10 -2 31 -6q25 -6 41 -8q51 -10 149 -27q-25 -8 -74 -37 q-14 -31 -61 -37q-27 -10 -59 -49q-23 -29 -23 -61q0 -2 2 -12v-13q18 -113 129 -192q117 -86 320 -86q190 0 319 110q129 111 148 215q4 4 6 11l18 55q12 33 19 51q0 2 2 8v4q0 12 -21 15q-14 4 -49 12q-14 4 -35 8q-6 2 -43 12t-45 13q-2 2 -12 4q-59 14 -100 24 q-94 23 -138 33q-152 39 -252 60q-25 27 -24 63q4 37 53 43q27 2 51 6q33 -4 84 -8l13 -2h20q16 -2 18 -2q180 0 312 104q143 113 143 273q0 106 -72 196q-16 27 -16 41q0 23 25 43q12 10 30 11q41 0 92 -76q4 -6 11 -17q4 -10 8 -16q0 -23 8 -31q16 0 29 31q27 45 53 70 q20 16 21 30q0 8 -7 15q-45 80 -149 80q-63 0 -123 -48q-48 -32 -74 -32h-2q-16 0 -33 10q-115 76 -294 76q-207 0 -353 -115q-141 -111 -141 -268zM203 -94q4 100 94 149v2q27 8 27 23q-1 23 -21 43q111 0 268 -41q129 -39 252 -74q18 -23 19 -59q0 -84 -99 -166 q-94 -80 -227 -80q-135 0 -221 61q-88 63 -92 142zM268 756q0 104 39 215q44 129 234 129t229 -135q41 -119 43 -209q0 -98 -70 -213q-70 -117 -213 -117q-137 6 -202 119q-59 109 -60 211z" />
<glyph unicode="h" horiz-adv-x="1169" d="M41 1683q4 -25 8 -24q43 0 72 -60q27 -51 41 -219q14 -113 14 -358v-88q-2 -55 -2 -105q-6 -352 -24 -501q-14 -150 -35 -209q-31 -68 -58 -72q-2 0 -2 -14l-2 -15q0 2 4 2q25 4 101 5q31 -2 96 -2q66 0 96 2q29 0 66 -2q20 -2 33 -3q10 0 10 -12v4l-2 4q-8 27 -23 31 q-35 6 -65 78q-20 59 -31 215q-4 49 -4 192q0 127 6 308v16q2 4 2 10q0 63 27 78q25 16 43 23l22 8q53 16 84 26q49 12 131 13q100 0 146 -35q57 -39 57 -248q0 -88 -4 -141v-19v-41h-2v21v-2v-2v-4v-2q0 -119 -2 -174.5t-8 -118.5l-2 -23q-16 -102 -33 -137 q-23 -47 -51 -53q-4 -4 -5 -17q0 -2 5 -2l4 -2q12 -6 20 -6q18 2 35 4q35 4 47 6q33 8 90 9h88q39 0 88 -7q6 0 6 -6q-8 18 -22 25q-27 14 -47 65q-16 47 -23 146v31q-2 29 -2 45q0 102 8 219v2v4v2q-2 8 -2 41v35v35v34q0 137 -2 193q0 78 -12 127q-12 53 -43 76 q-29 23 -72 32q-16 4 -57 4q-35 0 -82 -6q-88 -12 -188 -37q-39 -10 -70 -24q-16 -6 -37 -16q-20 -10 -37 -17q-10 -6 -30 -6q-4 0 -11 2q-8 2 -12 2q-37 10 -37 88q2 57 4 201q2 100 4 151q2 66 2 129q0 55 27 56q-2 0 -18 30q0 6 -17 7q-29 -4 -41 -9q-16 -2 -51 -2h-106 q-57 0 -107 7q-6 0 -6 -3z" />
<glyph unicode="i" horiz-adv-x="475" d="M41 1147q10 -33 20 -35q33 -6 62 -53q25 -45 33 -152q4 -23 4 -88q-1 -100 -13 -270q0 -215 -12 -305q-12 -74 -29 -105q-25 -61 -49 -71q-4 -4 -4 -25q0 -27 2 -39v27q27 2 95 2h90h96q27 0 88 -4h6q2 0 2 2l2 2v-10l-2 4q-2 25 -8 30q-23 6 -43 39q-14 23 -27 105 q-8 74 -12 258q0 10 2 182q2 180 2 244v157v37q6 16 6 54q0 6 -14 6q-33 -6 -47 -6q-14 2 -43 2q-66 0 -101 2q-66 4 -100 8q-6 0 -6 2zM145 1530q0 -47 33 -80q31 -33 78 -33q45 0 78 33q35 35 35 80t-35 80t-78 35q-45 0 -78 -35q-33 -33 -33 -80z" />
<glyph unicode="j" horiz-adv-x="497" d="M41 -260q0 -27 29 -27v2q8 2 20 6q98 47 152 142q61 109 166 168q2 0 6 6l2 4q-2 2 -2 6q-2 12 -2 31q0 -14 17 -21.5t28 -9.5q0 20 -14.5 26.5t-24.5 6.5q-4 4 -11.5 12t-7.5 23q-4 10 -8 86q-2 8 -2 18q-6 86 -12 320q4 274 6 385q4 121 8 147q0 25 6 37q2 10 2 35 q0 -6 2 -6h-6q-45 -4 -63 -4h-66h-76q-28 0 -77 4q-10 0 -11 -2q0 -12 -2 -13q31 0 66 -51q25 -39 43 -160q14 -80 14 -256v-59q-2 -35 -2 -68q-18 -199 -18 -399q0 -195 -148 -367l-8 -12q-6 -6 -6 -10zM225 1434q31 -33 78 -33q45 0 78 33q35 35 35 79q0 45 -35 80t-78 35 q-45 0 -78 -35q-32 -32 -32 -77q0 -50 32 -82z" />
<glyph unicode="k" horiz-adv-x="1181" d="M41 1663l2 -2l14 6q33 0 66 -57q25 -51 37 -221q10 -137 10 -377v-84q-2 -51 -2 -99q0 -344 -12 -495q-12 -152 -33 -215q-27 -68 -62 -72q-4 0 -8 -29q0 -6 -2 -14q0 16 4 16q25 4 101 5q33 -2 96 -2t96 2q33 0 70 -2q18 -2 28 -3q12 0 13 -12l-2 4l-2 4q-4 8 -6 9 q-25 6 -50 67q-18 23 -30 78q-12 92 -15 240q0 43 2 49q4 14 35 43q10 12 35 33q20 16 31 26q31 23 47 23q39 0 74 -54q141 -221 184 -313q41 -84 41 -131q-10 -45 -55 -45q4 0 4 -12h18q96 10 191 12q49 0 86 -6q39 -4 88 -6q6 0 6 -13q0 2 -2 4q-2 4 -2 5q-16 39 -23 38 q-16 0 -67 41q-41 35 -117 144q-78 115 -223 377q-35 63 -35 88q0 29 65 104q156 156 207 195q66 51 98 63l5 2q35 12 45 13q12 0 43 40v5l-2 2q4 -6 6 -7q-31 -6 -109 -6q-35 2 -100 2q-72 0 -113 2q-51 2 -104 11q-16 0 -29 -13v-4q-2 -4 -2 -6q0 -16 12 -22 q53 -18 66 -62q0 -49 -53 -121q-55 -70 -258 -247q-18 -18 -48 -25q-47 0 -47 55v72q0 49 2 74q6 379 6 534v203v43q2 16 7 59q0 8 -4 9h-5q-4 -2 -6 -2q-27 -4 -41 -9q-18 -2 -53 -2h-104q-60 0 -109 6q-4 0 -4 9l2 -4v-5l-2 -8q0 -10 -2 -10z" />
<glyph unicode="l" horiz-adv-x="495" d="M41 1679q4 -23 6 -22q39 0 68 -60q25 -59 39 -219q12 -117 12 -346v-92q-2 -59 -2 -111q-6 -336 -23 -501q-14 -152 -35 -209q-29 -68 -53 -72q-2 0 -2 -14l-2 -15q0 2 2 2q25 4 101 5q33 -2 96 -2t96 2q33 0 70 -2q18 -2 28 -3q12 0 13 -12q0 2 -2 4l-2 2q-6 14 -13 15 q-31 0 -59 77q-16 55 -27 222q-4 57 -4 223q0 43 2 123q2 113 2 166q6 379 6 534v203v43q2 16 7 59q0 8 -5 9h-4q-4 -2 -6 -2q-27 -4 -41 -9q-18 -2 -53 -2h-104q-60 0 -109 6q-2 0 -2 -2z" />
<glyph unicode="m" horiz-adv-x="1912" d="M41 1137q6 -31 18 -35q35 -6 64 -53q25 -41 33 -150q4 -25 4 -96q0 -82 -10 -262q0 -201 -11 -303q-8 -100 -24 -138q-18 -45 -39 -53q-4 -2 -8 -29q0 -27 2 -38q0 18 2 26q27 4 92 4h90h96q45 0 94 -6q2 0 7 4q-2 -2 -2 -10l-3 4q-6 33 -12 35q-20 6 -47 41 q-16 27 -33 110q-10 70 -14 263q2 41 2 120q2 80 2 119q0 100 2 154v16q0 31 8 55q10 31 64 62q51 31 117 47q84 25 143 25q92 0 133 -50q61 -61 61 -297q0 -20 -2 -55q-2 -47 -2 -65v-17v-18v-4v-15q-4 -4 -10 -8q8 14 8 41h2q0 -246 -14 -344q-12 -102 -31 -139 q-27 -45 -53 -51q-4 -4 -4 -17q2 -2 8 -2q14 -10 21 -10q51 6 84 12q35 8 88 8h88q39 0 88 -6q6 0 6 -6q-8 18 -23 25q-27 14 -47 65q-16 47 -22 146v30q-2 29 -2 45q0 102 8 220v2q0 -14 -35 -17h39q-6 23 -6 64v35v34v35v80v72q0 47 20 76q27 41 80 63q12 4 13 6 q47 18 63 23q79 24 150 24h6q88 0 131 -41q69 -54 69 -294v-7v-51q-2 -31 -2 -59v-17v-43h-2v21v-4v-4q0 -127 -3 -201t-9 -117q-16 -106 -33 -139q-27 -45 -53 -51v-2q-2 -8 -2 -15q2 -2 8 -2q14 -10 21 -10q41 6 81 12q35 8 93 8q57 -6 88 -12q16 -2 84 -2q8 0 8 2 q-8 18 -23 25q-27 14 -47 65q-16 47 -22 146v30q-2 29 -2 45q0 102 8 220v2v4v2q-2 8 -2 41v35v34v35q0 137 -2 193q0 78 -13 127q-25 104 -102 120q-27 8 -90 9q-115 0 -258 -39q-37 -10 -76 -33q-20 -10 -45 -25q-25 -14 -45 -24q-33 -16 -53 -17q-29 0 -45 23 q-12 18 -33 47q-31 43 -82 55q-18 4 -49 5.5t-105 1.5q-92 -2 -194 -29q-43 -14 -74 -35q-43 -27 -86 -41q-12 -6 -31 -6q-35 0 -43 27q-10 27 -10 49q0 14 2 26q0 8 -14 9q-29 -6 -45 -7q-16 2 -45 2h-101q-37 0 -102 9h-2z" />
<glyph unicode="n" horiz-adv-x="1173" d="M41 1133q6 -29 16 -33q35 -2 66 -47q25 -33 37 -146q6 -25 6 -96q0 -98 -12 -262q0 -221 -15 -307q-12 -100 -30 -133q-25 -41 -50 -52q-4 -2 -8 -26q0 -6 2 -11v-2q49 6 97 7q31 2 96 2q63 0 92 -2q57 -4 90 -9q8 0 8 -10q0 6 -6 8q-4 33 -8 35q-20 12 -39 66 q-16 23 -25 84q-6 57 -10 260v143t-4 76q-2 35 -3 65.5t-1 94.5q6 100 96 137q14 6 43 14l15 4q20 6 28 8q88 27 160 27q82 0 123 -33q69 -48 69 -288v-7v-49q-2 -33 -2 -61q0 -12 -2 -21v-14v-4v-2v-2v-4h2q-2 -127 -6 -195.5t-10 -122.5q-18 -109 -41 -141 q-31 -43 -57 -49q-6 -2 -8 -17q0 -2 4 -2l4 -2q12 -6 20 -6q18 2 35 4q35 4 47 6q33 8 90 9h88q39 0 88 -7q6 0 7 -6q-8 18 -19 25q-20 14 -39 65q-12 35 -22 144q-4 35 -5 92t-1 205v2v4v2q-2 8 -3 41v35v35v34q0 115 7 197q4 18 4 51q0 47 -8 72q-12 53 -50 76 q-37 23 -82 32q-16 4 -57 4q-35 0 -82 -6q-88 -12 -188 -37q-25 -4 -60 -22q-45 -20 -69 -29q-33 -16 -58 -16q-18 0 -30 12q-10 6 -12.5 18.5t-2.5 43.5v18q2 6 2 21q0 6 -14 6q-33 -6 -47 -6q-14 2 -43 2q-31 0 -92 -5h-10h-23q-18 -2 -23 -2q-10 0 -30 2t-29 3h-6z" />
<glyph unicode="o" horiz-adv-x="1224" d="M41 580q0 -233 166 -400q170 -164 403 -164q236 0 406 164q168 166 168 400q0 238 -168 401q-168 168 -406 168q-236 0 -403 -168q-166 -166 -166 -401zM246 578q0 207 73 356q78 160 289 160q213 0 287 -158q72 -143 80 -358q0 -119 -24.5 -206t-73.5 -157 q-104 -141 -265 -141q-158 10 -264 155q-102 145 -102 349z" />
<glyph unicode="p" horiz-adv-x="1181" d="M41 1149q14 0 14 -2q4 -39 8 -39q41 0 72 -51q27 -45 45 -207q8 -66 11.5 -185.5t3.5 -357.5q-2 -209 -17 -381q-6 -68 -6 -172q0 -20 2 -41v-30q0 -27 6 -56v-4q4 18 15 19q49 0 86 36q53 49 114 60q2 0 2 12q0 29 2 45v6q-4 31 -10 43q-10 25 -12 54q0 4 -2 28 q-4 25 -4 31q0 59 61 68q289 37 498 237q211 197 211 434q0 240 -123 353q-120 112 -318 112h-4q-78 -6 -127 -49q-61 -51 -96 -63q-12 -4 -63 -5q-23 4 -34 17.5t-11 44.5q0 10 2 20q2 4 2 17q0 8 2 16q0 6 -15 6q-39 -2 -49 -10q-14 -10 -71 -10q-61 0 -89 -2q-25 0 -55 2 q-23 2 -33 2q-8 0 -18 2zM367 655v222q0 57 24 84q18 22 43 38q70 41 168 45q174 0 250 -120q76 -113 76 -275q0 -80 -39 -184q-39 -106 -131 -199q-51 -49 -125 -92t-127 -68q-37 -16 -60 -16t-43 12q-35 29 -34 74v68v73q0 248 -2 338z" />
<glyph unicode="q" horiz-adv-x="1183" d="M41 528q0 -223 125 -378q123 -147 305 -148q4 0 21 2h24q139 12 252 90l4 2l6 6q0 12 11.5 15.5t19.5 3.5q33 0 33 -58q-12 -154 -27 -227q-12 -84 -12 -166q0 -8 2 -12h24q31 0 58 39q47 53 133 59q8 0 14 15q8 8 8 24v8q-2 6 -2 9q-12 80 -12 219v152.5t-4 111.5 q-6 141 -6 356q0 51 2 121q2 53 2 70q8 162 33 219q31 55 71 55q12 0 15 25q0 4 2 12q0 -14 -8 -14q-18 -4 -58 -4q-2 0 -18 2h-19q-57 4 -90 4q-45 0 -47 -2q-4 0 -20 2q-20 2 -37 2q-10 0 -10 -6q0 -4 -2 -7q10 -14 10 -26q0 -59 -47 -60q-4 4 -9 5q-30 20 -34 22 q-78 41 -117 57q-57 25 -121 25q-193 0 -326 -158q-135 -160 -147 -420v-22q-2 -20 -2 -25zM227 561q0 4 2 21v20q0 174 66 301q72 170 229 170q131 0 271 -119q43 -37 43 -92q0 -123 2 -207q4 -125 6 -313q0 -96 -55 -131q-51 -35 -93 -53q-55 -23 -108 -23 q-168 31 -273 162q-90 115 -90 264z" />
<glyph unicode="r" horiz-adv-x="841" d="M41 1147q10 -33 20 -35q33 -6 62 -53q25 -45 33 -152q4 -23 4 -88q0 -100 -13 -270q0 -215 -12 -305q-12 -74 -29 -105q-25 -61 -49 -71q-4 -4 -4 -25q0 -27 2 -39v27q27 2 95 2h90h96q27 0 88 -4h6q2 0 2 2l2 2v-10l-2 4q-2 25 -8 30q-23 6 -43 39q-14 23 -27 105 q-8 74 -12 258v225q0 66 2 125v35q0 51 21 84q18 33 65 59q47 25 72 25q104 0 104 -97q0 -29 -20 -55q-29 -25 -29 -53v-23q0 -6 12 -6q23 0 31 13q35 55 90 69q47 14 84 39q27 18 27 51v8v5v4q-2 94 -60 141q-57 51 -118 51q-57 0 -74 -14l-6 -6q-37 -31 -66 -54 q-12 -10 -33 -20q-16 -8 -22 -12h-27t-30 9t-5 42q0 4 2 16q0 4 3 10q0 6 -19 7q-20 0 -49 -2h-49q-66 0 -101 2q-66 4 -100 8q-6 0 -6 2z" />
<glyph unicode="s" horiz-adv-x="1028" d="M41 477q2 -31 2 -71v-91v-88q0 -43 10 -49q70 -63 205 -108q133 -41 277 -41q156 0 307 108q145 102 145 275q-6 127 -67 196q-61 74 -150 117q-84 41 -192 63q-129 27 -199 46q-53 18 -100 51q-55 43 -56 88q0 66 66 88q49 18 121 24q92 0 215 -55q135 -57 196 -145 q6 -8 25 -27q8 -8 16 -8q12 0 12 8v6l-2 4q-8 29 -26 72q-18 41 -31 98q-4 16 -29 23q-23 8 -51 22q-6 2 -8 2q-49 23 -127 35t-129 17v2q-6 0 -43 2h-45q-111 0 -205 -41q-104 -49 -104 -193q0 -80 41 -131q49 -55 133 -78q72 -37 188 -63q117 -25 203 -55q78 -43 117 -93 q43 -47 45 -137q0 -115 -88 -184q-80 -61 -166 -62h-10q-190 0 -287 99q-96 100 -133 200q-12 23 -25 70q-6 27 -37 27q-14 0 -14 -23z" />
<glyph unicode="t" horiz-adv-x="733" d="M41 1161q0 -10 6 -20q2 -2 10 -2q57 0 88 8q2 0 9 2h6q4 0 10 -2q10 -2 14 -2q45 -8 45 -64q0 -78 -2 -120v-136q-2 -352 -12 -495q-8 -135 -22 -183q-20 -76 -50 -79q-6 0 -12 -52q0 -4 -2 -12q0 16 6 16q49 6 101 7q33 2 96 2t96 -2q51 0 100 -7h7q0 37 -3 39 q-25 2 -57 70q-18 45 -35 207q-8 135 -8 299q0 12 2 92v113v137q0 47 4 121q0 18 2 32q0 41 54 41h8q6 -2 10 -2q47 -10 59 -18q4 -2 39 -2q14 0 25 8q8 8 16 29q2 2 11 14q6 10 8 12l10 15q4 8 8 14t4 14v5l-2 4q-6 8 -22 8q-12 0 -33 4q-8 4 -14 4q-63 -2 -107 -14h-8 q-8 -2 -10 -2q-53 0 -54 73q0 59 2 144v51q0 27 2 53v12q0 4 3 13q0 8 2 10v6q2 12 4 37q0 14 -6 33h-21h-43q-12 0 -16 -13q-20 -129 -115 -288q-94 -160 -199 -199q-12 -2 -12 -12q-2 -12 -2 -23z" />
<glyph unicode="u" horiz-adv-x="1196" d="M41 1130q4 0 18 -2q20 -2 33 -2q4 0 21 2h24l33 2q45 2 63 3q61 0 134 8q6 0 8 -4q4 0 6 2q0 -4 22 -4q-33 0 -32 -37q-6 -39 -9 -121v-19q-6 -170 -8 -340q0 -106 2 -188v-43h2q6 -244 95 -252q10 0 16 -2q37 -2 51 -2q8 0 19 2h6q31 8 88 23q8 2 14 4q29 6 109 45 q96 47 96 108v101q0 49 6 147q0 182 -2 250t-10 102q-16 113 -39 144q-31 43 -55 49q-2 2 -2 41q0 -6 -7 -6q45 -4 93 -4h88q31 0 59 4l12 2q23 4 37 6q12 0 19 -8q8 -8 8 -17q0 -23 -2 -32q-2 -8 -2 -27v-31q-2 -55 -2 -102q-2 -104 -6 -365q0 -147 3 -223t9 -113 q18 -96 41 -127q27 -31 53 -36q-2 -2 -2 -54q0 8 4 9q-33 4 -92 6q-8 0 -29 2q-51 2 -65 2q-47 0 -70 -2q-14 -2 -33 -2q-18 -2 -32 -4q6 0 6 -9q0 23 8 64q0 4 2 10v6q0 49 -45 49q-20 0 -33 -10q-72 -27 -223 -84q-113 -41 -205 -41q-84 0 -137 60q-23 31 -35 88t-12 153 v25v24q0 8 2 48q0 25 2 47q0 12 2 57q0 31 2 57q0 31 2 64v55q0 164 -14 234q-18 106 -45 143q-33 43 -66 43q2 0 2 27q0 -4 -6 -5z" />
<glyph unicode="v" horiz-adv-x="1228" d="M41 1139l2 -9l2 -6q20 0 57 -41q37 -49 88 -151q59 -113 172 -381l31 -74q47 -115 72 -172q35 -80 96 -244q12 -45 55 -45q30 0 48 47q39 86 112 263q27 66 82 190l31 74q102 250 151 348q45 66 72 88q35 68 53 68q4 0 23 55v2v-10q0 2 -2 4q-57 -4 -88 -6t-86 -2 q-86 0 -146 6h-6v-17q-2 -12 -2 -14q0 -25 6 -25q68 0 68 -83q0 -37 -31 -127q-41 -113 -110 -248q-23 -43 -48 -113q-23 -68 -38 -100q-33 -49 -54 -49q-18 6 -45 53q-16 35 -39 106q-16 59 -49 121q-96 190 -119 281q-10 57 -10 88t6 41q20 43 47 53q-2 0 -2 2q0 12 -4 21 q-2 14 -24 14q-29 -4 -95 -8q-39 -2 -96 -2q-45 0 -78 8q-20 6 -69 14q-4 0 -21 -16l-6 -2q-6 0 -6 -2z" />
<glyph unicode="w" horiz-adv-x="1710" d="M41 1124q8 -41 12 -41q27 0 45 -20q20 -20 70 -125q51 -109 151 -381q55 -135 91 -246q53 -160 84 -243q16 -53 53 -54q16 0 24 -12h11q43 166 108 358q51 147 94 324q4 12 15 27q0 12 12 15t20 3q20 0 37 -35q27 -78 80 -250q6 -14 25 -75q18 -63 69 -224l25 -79 q16 -47 55 -48q27 0 43 48q59 143 90 251q18 63 60 195q18 57 22 72q33 78 80 190q51 127 66 158q47 111 59 131q27 43 41 45q18 6 86 119q0 -31 -2 -62.5t-4 -46.5q-8 2 -23.5 7t-27.5 14v12q-37 -6 -64 -12t-69 -6q-23 0 -80 4h-6q-2 0 -37 4q-25 4 -43 6q2 -2 2 -6 q-6 -6 -6 -8q0 -4 -2 -13v-10h-9q43 -4 64 -47q10 -10 10 -53q0 -35 -12 -101q-18 -102 -121 -360q-18 -39 -18 -45q0 -4 -13 -43l-4 -15q-22 -34 -51 -34h-2q-25 16 -27 37l-18 55q-61 186 -90 268q-51 147 -98 332q-12 63 -44 63q-39 0 -47 -69q-23 -135 -94 -324 q-69 -190 -110 -325q-20 -49 -43 -50q-18 0 -43 41q-14 35 -21 60q-2 20 -24 69q-106 244 -127 351q0 6 -3 14q-6 53 -6 72q0 41 11 53q23 39 49 47q-4 0 -4 -4q0 10 -13 41l-2 4q6 -8 17 -8h-6q-6 -2 -13 -2q-12 -2 -53 -7l-35 -4h-16q-55 -4 -78 -4q-25 0 -82 4 q-14 2 -43 4q-27 4 -39 5q-2 0 -2 -2l-2 -5l-2 -2q-2 0 -2 -2z" />
<glyph unicode="x" horiz-adv-x="1208" d="M41 31q6 0 14 -4q0 4 -2 10v6q0 -12 -8 -12q12 31 21 30q25 0 61 31q29 23 117 125q94 113 248 326q23 27 22 57q0 25 -16 51q-137 213 -209 303q-66 86 -99 113q-37 31 -49 31q-2 0 -12 41q-2 -2 -2 -9q2 8 2 13q-2 -8 -12 -8q6 0 24 -2q27 -2 49 -3q23 2 68 3h115 q70 0 110 8q10 0 13 20q6 -27 6 -45q0 4 2 6q-18 -14 -25 -55q0 -41 17 -96q25 -70 102 -180q16 -20 37 -21q25 0 57 35q84 104 101 153q8 25 8 46q0 33 -13 43q-20 27 -49 38q-6 6 -6 25q0 14 6 29h-6h6l4 -2q33 -4 103 -7q47 -2 104 -2q70 0 135 9q-4 0 -6 -9l2 -4 q2 -6 2 -10q0 4 2 8q2 -14 5 -20l12 -12q0 20 -33 20q-20 0 -33 -10q-25 -12 -94 -88q-70 -80 -213 -283q-20 -29 -20 -65q0 -37 24 -74q139 -217 215 -320q78 -104 121 -145q37 -33 66 -53q12 -6 32 -33q-4 -2 -10 -2l-4 -2q-8 -6 -12 -6q-2 0 -4 2h-4q-66 8 -140 8 q-33 0 -110 -6q-43 -2 -99 -8h-4q-8 0 -12 -23q-12 37 -12 55q0 -12 -15 -12q35 6 60 37q12 12 12 41q0 35 -16 76q-23 68 -162 260q-23 27 -45 26q-20 0 -49 -28q-139 -176 -162 -246q-14 -43 -14 -76q0 -18 2 -30.5t12 -18.5q25 -33 61 -43q-4 0 -4 6q0 -4 -6 -10 q-10 -14 -24 -14l-7 2h-6q-27 4 -110 6q-82 6 -117 6q-59 0 -125 -8z" />
<glyph unicode="y" horiz-adv-x="1314" d="M41 1151q51 -6 100 -18q39 -8 84 -9q25 0 80 2q12 2 25 2q57 2 102 11q8 0 10 6q6 -27 7 -47q0 8 24 8q-10 2 -16 2q-4 0 -8 2h-7q-35 0 -51 -45v-6q-2 -8 -2 -15q0 -39 35 -155q41 -125 209 -492l4 -12q4 -6 4 -8l6 -12l2 -5q27 -45 56 -45q27 0 65 70q162 338 195 475 q24 85 24 145q0 42 -8 54q-25 55 -76 55q2 0 2 -6q0 10 2 16q7 23 19 23q35 -2 86 -6q37 -2 94 -2q78 0 158 8q2 -4 2 -10q6 -2 6 -9q-10 -35 -19 -34q-27 0 -75 -50q-35 -37 -115 -194q-76 -152 -215 -500q-84 -152 -150 -389q-63 -209 -151 -350q-8 -12 -37 -12h-4 q-33 4 -49 4q-8 0 -17 -2h-12q-47 0 -113 -9q-43 -6 -71 -6h-17q-12 2 -14 2q-4 4 -6 17q-4 12 -4 18q0 -2 -2 -2q20 31 41 33q41 6 82 20q47 16 106 60q57 43 127 162q18 33 27 57v8q2 8 2 14q0 27 -15 68q-8 23 -26 72q-14 39 -27 71q-31 90 -61 166q-111 303 -189 463 q-68 141 -114 205q-51 68 -80 76q-16 6 -29 37q0 6 12 14q0 6 2 8q-4 0 -12 -1t-8 -3z" />
<glyph unicode="z" horiz-adv-x="1107" d="M41 37l2 -4v-6q4 -4 8 -4q78 4 173 6t239 2q143 -2 414 -2q39 0 63 32q31 43 45 91q20 61 66 106q16 16 16 43q0 16 -18 18q-10 0 -27 -22q-35 -35 -47 -45q-127 -98 -275 -133q-141 -31 -153 -31h-76h-72q-23 0 -31 8t-8 35q4 12 9 25q0 2 2 6q70 121 131 196 q55 70 139 193q59 90 186 283q98 147 209 282q18 18 19 29q0 -8 -6 -8q-20 0 -105 -2q-33 -2 -74 -2q-172 -4 -262 -7h-90q-82 -2 -149 -2q-113 1 -123 11q-12 -2 -25 -37q-29 -53 -45 -84q-33 -53 -57 -84q-4 -8 -4 -12l2 -7v-6q2 -10 10 -14q4 -2 14 -2t23 8q25 18 55 53 q37 43 143 88q78 33 218 33h43q25 -2 45 -2q4 -2 12 -4q8 0 18 -4q35 0 35 -41q0 -14 -10 -35q-57 -98 -127 -190q-39 -49 -127 -177l-12 -18q-49 -74 -164 -235l-29 -41q-94 -129 -215 -267q-8 -8 -8 -20z" />
<glyph unicode="{" horiz-adv-x="370" d="M41 866q0 -41 57 -73q82 -51 88 -113q14 -289 78 -506q27 -168 66 -209q-37 98 -62 260q-39 209 -49 463q-2 37 -61 68q-82 51 -82 112q0 51 80 113q59 41 61 74q10 256 49 469q23 160 64 270q-39 -43 -68 -215q-63 -223 -78 -522q-2 -53 -84 -113q-59 -41 -59 -78z" />
<glyph unicode="|" horiz-adv-x="96" d="M41 72h14v1544h-14v-1544z" />
<glyph unicode="}" horiz-adv-x="372" d="M41 -35q41 41 68 209q63 217 77 506q4 61 86 113q59 35 60 73q0 39 -62 78q-78 61 -82 113q-14 299 -77 522q-27 172 -70 217q41 -115 63 -272q41 -213 50 -469q4 -33 61 -74q82 -61 82 -113q0 -59 -84 -112q-55 -29 -59 -68q-12 -260 -52 -463q-24 -162 -61 -260z" />
<glyph unicode="~" horiz-adv-x="667" d="M41 1491v78q23 31 41 45q51 57 104 57q68 0 150 -112q25 -37 43 -62q0 14 -45 72v-15q82 -137 145 -137q35 0 68 39q41 43 80 111v8v14v15v-80q-29 -33 -43 -43q-51 -55 -105 -56q-68 0 -147 109q-20 31 -41 59q29 -57 43 -100v45q-80 141 -148 141q-33 0 -67 -41 q-33 -35 -78 -108v-8v-17v-14z" />
<glyph horiz-adv-x="303" d="M41 1540q0 -80 35 -125q31 -47 55 -47q-18 0 -18 -18q0 10 -19 36q-25 63 -43 148q43 -39 99 -39q47 0 79 33q33 33 33 80t-33 80q-35 35 -79 34q-90 0 -107 -120q-2 -20 -2 -62z" />
<glyph horiz-adv-x="305" d="M41 1608q0 -47 33 -80q31 -33 78 -33q55 0 100 39q-31 -111 -45 -145q-18 -27 -19 -39q0 18 -18 18q24 0 55 47q39 43 39 127q0 39 -4 60q-16 121 -108 120q-45 0 -78 -34q-33 -33 -33 -80z" />
<glyph horiz-adv-x="602" d="M41 1540q0 -80 35 -125q31 -47 55 -47q-18 0 -18 -18q0 10 -19 36q-25 63 -43 148q43 -39 99 -39q47 0 79 33q33 33 33 80t-33 80q-35 35 -79 34q-90 0 -107 -120q-2 -20 -2 -62zM338 1542q0 -84 37 -127q31 -47 55 -47q-18 0 -18 -18q0 10 -19 36q-25 63 -43 148 q43 -39 99 -39q47 0 79 33q33 33 33 80t-33 80q-35 35 -79 34q-92 0 -109 -120q-2 -20 -2 -60z" />
<glyph horiz-adv-x="602" d="M41 1608q0 -47 33 -80q31 -33 78 -33q55 0 100 39q-31 -111 -45 -145q-18 -27 -19 -39q0 18 -18 18q24 0 55 47q39 43 39 127q0 39 -4 60q-16 121 -108 120q-45 0 -78 -34q-33 -33 -33 -80zM340 1608q0 -47 33 -80q31 -33 76 -33q61 0 102 39q-31 -111 -45 -145 q-18 -27 -19 -39q0 18 -18 18q20 0 55 47q37 39 37 125q0 41 -4 62q-16 121 -108 120q-43 0 -76 -34q-33 -33 -33 -80z" />
<glyph unicode="&#xa3;" horiz-adv-x="1300" d="M41 43q2 0 2 -2q0 -4 2 -8q6 -8 12 -8q238 16 449 18q154 0 272.5 -3t247.5 -11q39 0 53 26q16 37 31 82q18 53 33 84q23 49 55 94q25 29 57 88q4 6 5 15q0 4 -5 12q-6 12 -18 12q-59 0 -84 -47q-90 -131 -254 -164q-152 -29 -371 -32q-113 0 -112 86v10q2 10 2 14 q18 100 45 189q25 90 24 180q0 47 -18 127h123h166l-4 12h-287q-20 78 -53 189q-25 84 -25 168q0 100 51 194q31 68 105 117q59 49 106 59q33 8 115 8q59 0 121 -24q63 -35 65 -43q0 -18 -28 -62q-35 -57 -35 -118q0 -80 51 -136q53 -55 125 -55t123 55q53 57 53 136 q0 55 -27 100q-61 129 -206 205q-147 80 -332 80q-186 0 -318 -88q-139 -92 -194 -232q-35 -106 -39 -196q0 -74 20 -156q20 -66 54 -201h-78l4 -12h74q16 -76 16 -127q0 -164 -53 -328q-57 -174 -121 -307z" />
<glyph unicode="&#xad;" d="M41 547h819v6h-819v-6z" />
<glyph unicode="&#x2000;" horiz-adv-x="914" />
<glyph unicode="&#x2001;" horiz-adv-x="1829" />
<glyph unicode="&#x2002;" horiz-adv-x="914" />
<glyph unicode="&#x2003;" horiz-adv-x="1829" />
<glyph unicode="&#x2004;" horiz-adv-x="609" />
<glyph unicode="&#x2005;" horiz-adv-x="457" />
<glyph unicode="&#x2006;" horiz-adv-x="304" />
<glyph unicode="&#x2007;" horiz-adv-x="304" />
<glyph unicode="&#x2008;" horiz-adv-x="228" />
<glyph unicode="&#x2009;" horiz-adv-x="365" />
<glyph unicode="&#x200a;" horiz-adv-x="101" />
<glyph unicode="&#x2010;" d="M41 547h819v6h-819v-6z" />
<glyph unicode="&#x2011;" d="M41 547h819v6h-819v-6z" />
<glyph unicode="&#x2012;" d="M41 547h819v6h-819v-6z" />
<glyph unicode="&#x2013;" horiz-adv-x="1106" d="M41 547h1024v6h-1024v-6z" />
<glyph unicode="&#x2014;" horiz-adv-x="2130" d="M41 547h2048v6h-2048v-6z" />
<glyph unicode="&#x202f;" horiz-adv-x="365" />
<glyph unicode="&#x205f;" horiz-adv-x="457" />
<glyph unicode="&#x25fc;" horiz-adv-x="1157" d="M0 0v1157h1157v-1157h-1157z" />
</font>
</defs>
</svg>
