<?xml version="1.0" encoding="utf-8"?>
<!-- Generator: Adobe Illustrator 16.0.0, SVG Export Plug-In . SVG Version: 6.00 Build 0)  -->
<!DOCTYPE svg PUBLIC "-//W3C//DTD SVG 1.1//EN" "http://www.w3.org/Graphics/SVG/1.1/DTD/svg11.dtd">
<svg version="1.1" id="Layer_1" xmlns="http://www.w3.org/2000/svg" xmlns:xlink="http://www.w3.org/1999/xlink" x="0px" y="0px"
	 width="209.336px" height="262.477px" viewBox="0 0 209.336 262.477" enable-background="new 0 0 209.336 262.477"
	 xml:space="preserve">
<g>
	<g>
		<path fill="#FFFFFF" d="M209.336,17.613C139.558,18.085,69.779,74.719,0,74.724c0-5.87,0-11.74,0-17.61
			C69.779,57.11,139.558,0.475,209.336,0.003C209.336,5.873,209.336,11.743,209.336,17.613z"/>
		<path fill="#FFFFFF" d="M209.336,203.981C139.558,204.453,69.779,261.088,0,261.093c0-5.869,0-11.739,0-17.609
			c69.779-0.004,139.558-56.64,209.336-57.111C209.336,192.242,209.336,198.111,209.336,203.981z"/>
		<g>
			<path fill="#FFFFFF" d="M68.306,96.939c6.787-0.501,13.437,1.565,19.949,6.318c10.685,7.795,14.628,19.768,11.831,36.097
				c-0.688,3.993-2.568,9.759-5.64,17.28c-5.412,13.306-14.056,24.641-25.933,33.369c-5.09,3.795-10.295,6.496-15.615,8.037
				c-8.071,2.389-15.707,2.697-22.906,0.921c-7.016-1.719-12.909-5.242-17.678-10.271c-4.586-4.819-7.819-9.936-9.699-15.076
				c-2.247-6.151-3.05-12.841-2.408-19.991c0.642-7.113,2.591-13.315,5.847-18.781c3.072-5.185,6.466-9.822,10.18-13.969
				c7.888-8.796,18.665-15.157,32.331-20.181C53.792,98.767,60.372,97.577,68.306,96.939z M77.661,129.186
				c-2.338-5.535-5.984-9.225-10.937-11.187c-5.641-2.184-12.152-1.701-19.537,1.178c-6.19,2.4-11.946,6.835-17.266,13.35
				c-5.089,6.188-8.231,12.311-9.423,18.679c-1.192,6.21,0.229,13.142,4.265,20.588c9.584,8.411,18.206,11.257,25.864,9.118
				c6.65-1.847,12.634-6.133,17.954-12.669c5.274-6.525,8.667-13.702,10.181-21.383c-0.091-1.204,0-3.83,0.276-7.878
				c0.183-3.235,0-5.87-0.551-7.907C78.578,131.405,78.303,130.776,77.661,129.186z"/>
			<path fill="#FFFFFF" d="M197.901,78.639c-1.926,1.364-3.531,2.485-4.814,3.33c-5.412,3.561-8.713,5.779-9.906,6.262
				c-0.32-0.492-0.389-1.67-0.207-3.539c0.186-1.823,0.047-3.104-0.412-3.845c-3.027-2.826-8.141-4.566-15.34-4.771
				c-9.493,1.016-17.289,4.748-23.389,10.6c-2.889,2.762-5.045,5.112-6.465,7.012c-4.771,6.396-7.406,14.492-7.912,24.175
				c-0.504,9.283,2.271,16.387,8.324,21.485c1.33,1.117,3.829,2.146,7.498,3.159c0.229,0.106,1.949,0.14,5.159,0.173
				c2.706,0.02,5.664-0.398,8.874-1.222c1.146-0.25,3.164-0.92,6.053-1.94c1.788-0.58,4.196-1.909,7.223-3.918
				c3.394-2.188,5.688-3.965,6.879-5.447c7.199-8.871,10.615-16.004,10.25-22.078c-2.707,0.394-7.567,0.972-14.584,2.236
				c-6.557,1.22-11.188,2.444-13.895,3.271c0.047,0.032-0.021-3.754-0.206-11.358c5.319-1.575,13.414-3.846,24.282-5.633
				c11.878-1.875,20.132-2.01,24.764-2.075c0.871,11.965-2.453,23.661-9.975,36.015c-6.008,10.833-18.229,18.463-36.664,26.239
				c-4.632,1.946-10.111,3.152-16.439,3.718c-7.567,0.674-13.805-0.021-18.711-2.343c-3.484-1.676-6.306-3.374-8.459-5.127
				c-3.992-3.221-6.65-6.447-7.979-9.716c-1.331-3.357-2.063-6.43-2.202-9.217c-0.32-5.052-0.391-8.417-0.206-10.097
				c1.375-13.299,6.603-26.078,15.683-38.142c4.357-5.747,8.852-10.728,13.483-14.899c8.575-7.657,19.283-12.638,32.124-13.793
				c2.98-0.28,6.924,0.031,11.832,1.132c4.036,0.9,7.27,2.384,9.699,4.32c4.906,3.781,8.369,8.168,10.387,12.865
				C201.959,75.924,200.377,76.95,197.901,78.639z"/>
		</g>
	</g>
</g>
</svg>
