<?xml version="1.0" encoding="utf-8"?>
<!-- Generator: Adobe Illustrator 16.0.0, SVG Export Plug-In . SVG Version: 6.00 Build 0)  -->
<!DOCTYPE svg PUBLIC "-//W3C//DTD SVG 1.1//EN" "http://www.w3.org/Graphics/SVG/1.1/DTD/svg11.dtd">
<svg version="1.1" id="Layer_1" xmlns="http://www.w3.org/2000/svg" xmlns:xlink="http://www.w3.org/1999/xlink" x="0px" y="0px"
	 width="136.802px" height="124px" viewBox="0 0 136.802 124" enable-background="new 0 0 136.802 124" xml:space="preserve">
<g>
	<g>
		<g>
			<path d="M28.472,49.333c-0.454,0.482-0.718,0.83-0.787,1.076c-0.338,1.017,0.021,2.968,1.094,5.826
				c0.634,1.667,1.59,4.303,2.869,7.892c1.178,3.336,2.113,5.849,2.795,7.583c2.298,5.924,3.598,9.336,3.92,10.262
				c1.823,5.298,3.229,8.523,4.227,9.687c1.051,1.223,1.58,1.755,1.606,1.591c-0.111,0.124-0.306,0.24-0.581,0.356
				c-0.338,0.143-0.613,0.279-0.819,0.429c-1.57,0.319-3.899,0.885-6.99,1.62c-2.822,0.668-4.961,1.061-6.409,1.244
				c0.016-0.405,0.396-1.053,1.12-1.936c0-0.307,0.101-0.92,0.312-1.884c0.159-0.732,0.175-1.337,0.063-1.81
				c-0.407-2.017-1.31-4.031-2.689-6.103c-6.461,1.147-10.329,1.579-11.603,1.816c-1.839,5.043-2.652,8.303-2.42,9.844
				c0.042,0.271,0.28,0.646,0.713,1.113c0.322,0.396,0.417,0.776,0.312,1.105c-4.935,0.838-9.801,1.122-14.604,0.784
				c-0.021-0.223,0.312-0.623,0.988-1.199c0.687-0.566,1.094-0.882,1.231-0.938c0.703-1.241,2.24-4.937,4.607-11.163
				c0.972-2.562,2.055-5.924,3.233-10.103c0.185-0.693,0.925-3.257,2.219-7.699c0.909-3.114,1.654-5.777,2.219-7.957
				c0.068-0.304,0.264-0.961,0.581-1.972c0.296-0.923,0.502-1.667,0.618-2.232c0.401-1.794,0.365-3.195-0.105-4.182
				c-0.116-0.261-0.354-0.526-0.719-0.831c-0.386-0.313-0.645-0.579-0.782-0.796c0.111-0.278,0.75-0.496,1.908-0.644
				c0.84-0.109,2.674-0.28,5.495-0.637c2.224-0.271,4.058-0.605,5.489-0.961c0.117-0.023,0.275-0.075,0.476-0.146
				c0.249-0.103,0.412-0.167,0.481-0.203c0.359-0.125,0.645-0.088,0.856,0.09C29.37,48.378,29.059,48.739,28.472,49.333z
				 M22.607,80.438c1.5-0.241,2.695-0.482,3.577-0.744c-2.431-5.091-3.751-7.821-3.958-8.133c-0.317,0.94-0.909,2.517-1.775,4.721
				c-0.792,2.003-1.368,3.587-1.738,4.76C19.057,80.992,20.356,80.814,22.607,80.438z"/>
			<path d="M76.844,55.21c0.274-5.642,0.317-9.522,0.105-11.635c-0.296-3.27-0.835-5.272-1.606-5.987
				c-1.184-1.074-1.797-1.477-1.839-1.252c0.084-0.427,1.141-0.955,3.17-1.574c0.571-0.174,1.342-0.388,2.325-0.632
				c0.834-0.242,1.331-0.38,1.5-0.431c1.184-0.387,2.705-0.83,4.607-1.332c2.177-0.507,3.593-0.863,4.248-1.047
				c0.021,0.249-0.402,1.106-1.29,2.584c-0.613,1.569-1.014,4.918-1.226,10.051c-0.116,3.341-0.19,7.357-0.232,12.04
				c-0.053,5.743-0.106,9.721-0.169,11.937c-0.126,5.713,0.085,9.117,0.613,10.245c0.74,1.552,1.184,2.23,1.31,2.035
				c-0.032,0.063-1.289,0.446-3.741,1.184c-5.548,1.662-8.2,2.495-7.989,2.393c0.053,0.142-1.025-2.288-3.234-7.293
				c-1.183-2.701-2.917-6.266-5.22-10.668c-2.684-5.098-4.48-8.613-5.389-10.511c-0.47,9.961-0.645,18.204-0.507,24.705
				c0.069,2.621,0.745,4.569,2.05,5.816c0.042,0.061,0.126,0.119,0.264,0.193c0.158,0.099,0.275,0.158,0.349,0.209
				c0.243,0.2,0.307,0.455,0.169,0.804c0,0.243-0.126,0.377-0.38,0.381c-0.476,0.041-0.645,0.03-0.507-0.013
				c-0.708,0.186-2.288,0.695-4.745,1.483c-2.546,0.837-4.343,1.401-5.389,1.679c-2.98,0.846-4.491,1.228-4.533,1.221
				c1.722-3.038,2.631-4.732,2.721-5.054c0.327-1.173,0.391-4.426,0.211-9.742c-0.069-1.692-0.105-5.549-0.105-11.604
				c0-1.384,0.068-5.103,0.206-11.177c0.068-3.053,0.079-4.916,0.032-5.61c-0.132-2.001-0.592-3.378-1.363-4.106
				c-0.861-0.829-1.294-1.202-1.294-1.128c0.042-0.329,0.317-0.587,0.819-0.774c0.729-0.263,1.157-0.44,1.294-0.554
				c-0.137,0.016,2.594-0.656,8.19-2.138c0.84-0.22,1.68-0.442,2.52-0.665c0.159,0.014,0.761,1.151,1.807,3.375
				c1.3,2.686,3.286,6.847,5.928,12.487c2.642,5.64,4.586,9.745,5.812,12.298C76.601,60.748,76.78,56.677,76.844,55.21z"/>
			<path d="M95.421,76.824c0.127-0.149,0.285-0.318,0.507-0.513c0.253-0.225,0.423-0.363,0.497-0.435
				c0.053-0.246,0.18-0.575,0.37-1.015c0.211-0.508,0.338-0.848,0.402-1.022c0.296-0.783,0.317-1.349,0.042-1.68
				c0.084-0.36,0.19-3.303,0.296-8.805c0.148-7.635,0.38-15.039,0.719-22.193c0.253-5.199-0.19-8.576-1.321-10.137
				c-0.243-0.23-0.486-0.459-0.729-0.689c-0.285-0.254-0.422-0.535-0.401-0.857c1.5-0.885,9.172-3.2,23.016-4.553
				c2.103-0.192,3.561-0.189,4.417-0.052c2.979,0.494,6.192,2.144,9.648,5.046c1.553,2.229,2.536,3.924,2.906,5.051
				c0.74,2.456,1.088,6.23,1.014,11.323c-0.105,6.848-0.729,11.6-1.838,14.282c-1.649,4.097-4.09,7.105-7.345,9.175
				c-1.986,1.275-4.375,2.268-7.154,3.043c-1.395,0.394-3.265,0.72-5.622,1.072c-3.213,0.51-5.178,0.896-5.918,1.073
				c-1.12,0.258-2.917,0.617-5.389,1.128c-2.325,0.479-4.068,0.921-5.284,1.3c-0.275,0.069-0.592,0.202-0.983,0.407
				c-0.454,0.211-0.74,0.348-0.845,0.396c-0.603,0.24-1.078,0.143-1.427-0.284C94.914,77.57,95.072,77.211,95.421,76.824z
				 M125.897,57.382c0.401-1.02,0.74-2.549,0.972-4.597c-0.021,0.192,0.042-1.842,0.169-6.08c0.127-4.321-0.465-7.627-1.754-9.841
				c-0.148-0.123-0.655-0.583-1.532-1.376c-0.603-0.58-1.152-0.982-1.659-1.238c-1.5-0.824-3.678-1.2-6.573-1.045
				c0.328-0.008-2.124,0.214-7.302,0.969c0,0.102,0,0.204,0,0.306c-0.053,1.458-0.074,3.608-0.095,6.434
				c-0.021,3.122-0.063,5.328-0.105,6.637c-0.275,9.578-0.423,16.341-0.423,20.241c6.827-1.274,11.624-2.801,14.414-5.052
				C123.878,60.877,125.178,59.108,125.897,57.382z"/>
		</g>
		<path d="M136.802,6.707C91.402,6.711,46.001,34.795,0.601,34.795c0-2.11,0-4.22,0-6.33c45.4,0,90.801-28.084,136.202-28.088
			C136.802,2.487,136.802,4.597,136.802,6.707z"/>
		<path d="M136.802,94.005c-45.4,0.004-90.801,28.088-136.202,28.088c0-2.11,0-4.22,0-6.33c45.4,0,90.801-28.084,136.202-28.088
			C136.802,89.785,136.802,91.895,136.802,94.005z"/>
	</g>
</g>
</svg>
