<?xml version="1.0" encoding="utf-8"?>
<!-- Generator: Adobe Illustrator 16.0.0, SVG Export Plug-In . SVG Version: 6.00 Build 0)  -->
<!DOCTYPE svg PUBLIC "-//W3C//DTD SVG 1.1//EN" "http://www.w3.org/Graphics/SVG/1.1/DTD/svg11.dtd">
<svg version="1.1" id="Layer_1" xmlns="http://www.w3.org/2000/svg" xmlns:xlink="http://www.w3.org/1999/xlink" x="0px" y="0px"
	 width="409.819px" height="318.609px" viewBox="0 0 409.819 318.609" enable-background="new 0 0 409.819 318.609"
	 xml:space="preserve">
<rect x="181.468" y="-9.122" transform="matrix(0.9973 -0.0731 0.0731 0.9973 -11.0839 15.0626)" display="none" fill="#FFFFFF" width="37.334" height="336.001"/>
<g>
	<path fill="#FFFFFF" d="M64.428,83.519c5.174-9.291,11.328-18.123,18.438-26.358c27.284-31.6,65.241-50.684,106.877-53.735
		C193.593,3.143,197.492,3,201.333,3c39.373,0,77.026,14.778,106.022,41.613c6.354,5.88,12.16,12.222,17.388,18.955l3.558-0.273
		c-5.633-7.444-11.944-14.439-18.908-20.884C279.841,15.062,241.464,0,201.333,0c-3.914,0-7.888,0.146-11.81,0.433
		c-42.436,3.11-81.121,22.56-108.929,54.766c-7.688,8.903-14.283,18.489-19.746,28.593L64.428,83.519z"/>
	<path fill="#FFFFFF" d="M342.472,226.26c-5.973,12.553-13.671,24.382-23.001,35.188c-27.284,31.6-65.24,50.684-106.877,53.735
		c-3.851,0.282-7.75,0.426-11.592,0.426c-39.374,0-77.026-14.778-106.022-41.612c-8.825-8.167-16.589-17.229-23.216-26.99
		l-3.44,0.264c6.958,10.49,15.197,20.208,24.619,28.928c29.552,27.35,67.929,42.411,108.06,42.411c3.914,0,7.889-0.146,11.811-0.434
		c42.437-3.11,81.121-22.561,108.929-54.767c9.892-11.456,17.976-24.044,24.159-37.412L342.472,226.26z"/>
</g>
<g>
	<path fill="#FFFFFF" d="M1.596,198.578v-51.759c0-11.197,6.752-19.091,17.256-19.951c10.253-0.84,16.88,5.46,16.88,17.031v7.963
		l-6.252,0.512v-7.839c0-8.585-3.626-12.27-10.503-11.706c-6.252,0.513-10.753,5.609-10.753,13.447v51.884
		c0,6.221,3.626,12.145,10.753,11.561c7.127-0.584,10.378-6.697,10.378-13.167v-7.465l6.377-0.522v7.465
		c0,8.958-5.251,18.72-16.755,19.662C8.098,216.585,1.596,208.781,1.596,198.578z"/>
	<path fill="#FFFFFF" d="M44.606,195.553v-52.63c0-9.331,5.877-18.522,17.381-19.464c10.503-0.86,16.629,7.099,16.629,16.803v52.382
		c0,9.207-5.501,18.615-16.629,19.527C51.108,213.062,44.606,205.382,44.606,195.553z M51.233,142.381v52.63
		c0,6.346,3.376,11.791,10.754,11.188c6.876-0.563,10.252-6.438,10.252-13.032v-52.382c0-6.096-3.125-12.062-10.252-11.478
		C54.609,129.91,51.233,135.662,51.233,142.381z"/>
	<path fill="#FFFFFF" d="M115,125.586l-12.129,0.993v81.371l-6.377,0.522v-81.371l-12.254,1.004v-5.723l30.76-2.52V125.586z"/>
	<path fill="#FFFFFF" d="M150.509,122.677l-12.129,0.994v81.371l-6.377,0.522v-81.371l-12.254,1.004v-5.723l30.76-2.521V122.677z"/>
	<path fill="#FFFFFF" d="M156.383,186.397v-52.63c0-9.331,5.876-18.522,17.38-19.465c10.503-0.86,16.63,7.099,16.63,16.803v52.382
		c0,9.207-5.501,18.615-16.63,19.527C162.885,203.905,156.383,196.227,156.383,186.397z M163.01,133.225v52.63
		c0,6.346,3.376,11.792,10.753,11.188c6.877-0.563,10.253-6.438,10.253-13.032v-52.382c0-6.096-3.126-12.062-10.253-11.478
		C166.386,120.755,163.01,126.506,163.01,133.225z"/>
	<path fill="#FFFFFF" d="M236.404,109.918v87.095l-6.127,0.501l-18.38-51.621l-5.377-17.726l1,18.83v52.381l-6.627,0.543v-87.094
		l6.253-0.512l18.755,53.208l5.002,16.885l-1-17.959v-53.998L236.404,109.918z"/>
	<path fill="#FFFFFF" d="M273.788,112.579l-12.128,0.993v81.371l-6.378,0.522v-81.371l-12.253,1.004v-5.723l30.759-2.52V112.579z"/>
	<path fill="#FFFFFF" d="M302.044,168.245v0.124l-14.38,1.178v-0.124l-3.626,23.688l-6.627,0.543l13.504-88.2l7.627-0.625
		l13.63,85.977l-6.502,0.533L302.044,168.245z M301.294,162.459l-3.377-20.876l-3.126-25.499l-3.125,26.011l-3.252,21.419
		L301.294,162.459z"/>
	<path fill="#FFFFFF" d="M320.047,190.161v-87.094l6.627-0.543v87.094L320.047,190.161z"/>
	<path fill="#FFFFFF" d="M362.933,180.8v5.848l-25.759,2.11v-87.094l6.628-0.543v81.246L362.933,180.8z"/>
	<path fill="#FFFFFF" d="M369.433,168.696v-8.46l6.501-0.532v8.46c-0.25,6.49,3.377,12.29,10.879,11.675
		c6.878-0.563,10.379-6.324,10.379-13.167v-5.848c0-5.724-5.127-7.543-11.129-10.411c-7.128-3.397-15.631-6.808-16.38-16.699
		v-17.419c0-9.953,5.001-18.326,16.005-19.227c9.878-0.809,15.505,6.319,15.505,16.397v11.322l-6.377,0.522v-11.197
		c0-6.47-2.502-11.615-9.128-11.073c-5.627,0.461-9.379,4.626-9.379,12.712v17.17c0.376,5.693,5.502,8.508,10.629,10.95
		c8.878,4.249,16.631,7.098,16.631,15.932v6.346c0,9.705-5.378,18.605-16.756,19.537
		C376.559,186.526,369.307,179.78,369.433,168.696z"/>
</g>
<g>
	<path fill="#FFFFFF" d="M16.729,99.598c1.763,1.444,2.645,3.583,2.645,6.413c0,2.831-0.855,5.141-2.565,6.932
		c-1.71,1.791-4.329,2.829-7.854,3.117l-6.074,0.498v-18.21l6.283-0.515C12.444,97.565,14.966,98.154,16.729,99.598z
		 M16.258,106.345c0-4.168-2.4-6.055-7.2-5.662l-3.089,0.253v12.479l3.43-0.281c2.216-0.182,3.914-0.846,5.092-1.993
		S16.258,108.395,16.258,106.345z"/>
	<path fill="#FFFFFF" d="M30.944,96.05l8.063,17.55l-3.403,0.279l-1.858-3.991l-8.771,0.719l-1.78,4.288l-3.298,0.271l8.063-18.871
		L30.944,96.05z M32.515,107.15l-3.141-6.75l-3.116,7.263L32.515,107.15z"/>
	<path fill="#FFFFFF" d="M54.82,107.693V94.094l3.089-0.253v18.209l-3.351,0.275L44.191,99.889v13.286l-3.089,0.253v-18.21
		l3.089-0.253L54.82,107.693z"/>
	<path fill="#FFFFFF" d="M65.815,96.229c-0.542,0.47-0.812,1.043-0.812,1.721s0.288,1.187,0.864,1.531
		c0.576,0.344,1.802,0.664,3.678,0.962c1.876,0.298,3.29,0.816,4.241,1.555c0.951,0.738,1.427,1.902,1.427,3.491
		c0,1.59-0.602,2.928-1.807,4.018c-1.204,1.088-2.784,1.712-4.738,1.872c-2.862,0.234-5.402-0.538-7.618-2.319l1.938-2.477
		c1.85,1.446,3.77,2.087,5.759,1.924c0.995-0.082,1.784-0.359,2.369-0.833c0.584-0.473,0.877-1.061,0.877-1.765
		c0-0.703-0.275-1.228-0.824-1.573c-0.55-0.346-1.497-0.625-2.841-0.835c-1.344-0.211-2.365-0.423-3.063-0.635
		c-0.698-0.211-1.318-0.513-1.859-0.903c-1.083-0.728-1.623-1.899-1.623-3.514s0.584-2.961,1.754-4.039
		c1.169-1.077,2.67-1.69,4.503-1.84c2.478-0.203,4.712,0.3,6.702,1.509l-1.728,2.591c-1.501-0.989-3.176-1.408-5.026-1.256
		C67.08,95.486,66.356,95.759,65.815,96.229z"/>
	<path fill="#FFFFFF" d="M91.235,91.111v2.892l-9.765,0.8v4.819l8.771-0.718v2.735l-8.771,0.718v4.872l10.08-0.826v2.891
		l-13.168,1.079v-18.21L91.235,91.111z"/>
	<path fill="#FFFFFF" d="M94.953,90.807l3.089-0.253v8.884l8.378-9.57l3.927-0.322l-7.356,8.574l7.461,9.627l-3.665,0.3
		l-6.073-7.474l-2.671,3.084v5.106l-3.089,0.253V90.807z"/>
	<path fill="#FFFFFF" d="M112.807,107.554v-18.21l3.089-0.253v15.292l8.351-0.684v2.918L112.807,107.554z"/>
	<path fill="#FFFFFF" d="M141.526,86.966v10.342c0,2.623-0.725,4.701-2.173,6.235c-1.449,1.535-3.277,2.391-5.485,2.572
		c-2.208,0.181-4.058-0.375-5.55-1.668c-1.492-1.293-2.238-3.199-2.238-5.717V88.231l3.115-0.255v10.081
		c0,1.702,0.415,3.019,1.244,3.949c0.829,0.931,1.958,1.338,3.39,1.22c1.431-0.117,2.557-0.691,3.377-1.722
		c0.82-1.031,1.23-2.389,1.23-4.074V87.219L141.526,86.966z"/>
	<path fill="#FFFFFF" d="M153.202,104.245l-8.011,0.656v-18.21l7.121-0.583c1.239-0.102,2.308-0.041,3.207,0.181
		c0.899,0.221,1.575,0.565,2.029,1.032c0.82,0.871,1.23,1.896,1.23,3.077c0,1.425-0.462,2.522-1.387,3.292
		c-0.314,0.269-0.532,0.439-0.655,0.509c-0.122,0.071-0.34,0.188-0.654,0.353c1.134,0.151,2.038,0.585,2.709,1.303
		c0.672,0.718,1.008,1.65,1.008,2.796c0,1.268-0.436,2.423-1.309,3.467C157.478,103.331,155.715,104.04,153.202,104.245z
		 M148.28,93.993l3.928-0.322c2.233-0.183,3.351-1.029,3.351-2.54c0-0.869-0.271-1.472-0.812-1.81
		c-0.541-0.337-1.379-0.46-2.513-0.367l-3.954,0.324V93.993z M148.28,101.809l4.844-0.397c1.134-0.093,2.002-0.342,2.604-0.747
		c0.603-0.405,0.903-1.103,0.903-2.093c0-1.615-1.3-2.316-3.9-2.104l-4.451,0.365V101.809z"/>
	<path fill="#FFFFFF" d="M170.768,102.806l-8.01,0.656v-18.21l7.121-0.583c1.239-0.102,2.308-0.041,3.207,0.181
		c0.898,0.221,1.575,0.565,2.029,1.032c0.82,0.871,1.23,1.896,1.23,3.077c0,1.425-0.463,2.522-1.388,3.292
		c-0.314,0.269-0.532,0.439-0.654,0.51c-0.123,0.07-0.341,0.188-0.655,0.352c1.135,0.151,2.038,0.585,2.71,1.303
		c0.671,0.718,1.008,1.65,1.008,2.796c0,1.268-0.437,2.423-1.309,3.467C175.044,101.892,173.282,102.601,170.768,102.806z
		 M165.846,92.554l3.927-0.322c2.235-0.183,3.351-1.029,3.351-2.54c0-0.869-0.271-1.472-0.812-1.81
		c-0.542-0.337-1.378-0.46-2.513-0.367l-3.953,0.324V92.554z M165.846,100.37l4.844-0.396c1.134-0.093,2.002-0.342,2.604-0.748
		c0.603-0.405,0.903-1.103,0.903-2.093c0-1.615-1.3-2.316-3.901-2.103l-4.45,0.364V100.37z"/>
</g>
<g>
	<path fill="#FFFFFF" d="M305.53,220.615l-8.01,0.656v-18.211l7.121-0.582c1.238-0.102,2.307-0.041,3.207,0.18
		c0.896,0.221,1.574,0.566,2.029,1.033c0.818,0.869,1.229,1.895,1.229,3.076c0,1.424-0.463,2.521-1.387,3.293
		c-0.314,0.268-0.533,0.438-0.654,0.51c-0.123,0.07-0.34,0.188-0.654,0.352c1.135,0.15,2.037,0.586,2.709,1.303
		c0.672,0.719,1.008,1.65,1.008,2.797c0,1.268-0.438,2.422-1.309,3.467C309.807,219.699,308.043,220.408,305.53,220.615z
		 M300.608,210.363l3.928-0.322c2.234-0.184,3.35-1.029,3.35-2.539c0-0.869-0.27-1.473-0.811-1.811s-1.379-0.461-2.514-0.367
		l-3.953,0.324V210.363z M300.608,218.178l4.844-0.396c1.135-0.092,2.002-0.342,2.605-0.748c0.602-0.404,0.902-1.102,0.902-2.092
		c0-1.615-1.301-2.316-3.9-2.104l-4.451,0.365V218.178z"/>
	<path fill="#FFFFFF" d="M328.202,200.547v2.893l-9.766,0.801v4.818l8.77-0.719v2.736l-8.77,0.719v4.871l10.08-0.826v2.893
		l-13.168,1.078v-18.209L328.202,200.547z"/>
	<path fill="#FFFFFF" d="M346.528,204.961c0,3.004-1.318,5.006-3.955,6.002l4.791,6.225l-3.926,0.322l-4.373-5.764l-4.057,0.332
		v6.123l-3.09,0.252v-18.209l6.807-0.559c2.793-0.229,4.791,0.076,5.996,0.916C345.924,201.441,346.528,202.895,346.528,204.961z
		 M342.417,207.877c0.629-0.59,0.943-1.48,0.943-2.67s-0.324-1.98-0.969-2.369c-0.646-0.391-1.799-0.518-3.457-0.381l-3.926,0.322
		v6.512l3.848-0.314C340.602,208.832,341.788,208.467,342.417,207.877z"/>
	<path fill="#FFFFFF" d="M362.836,207.062l3.09-0.252v6.227c-1.729,2.033-4.197,3.182-7.408,3.445
		c-2.707,0.223-4.971-0.479-6.795-2.102c-1.824-1.621-2.736-3.787-2.736-6.496s0.93-5.043,2.789-7.002
		c1.857-1.957,4.105-3.045,6.742-3.26c2.635-0.217,4.824,0.369,6.57,1.752l-1.648,2.48c-0.717-0.549-1.438-0.912-2.16-1.086
		c-0.725-0.176-1.566-0.225-2.527-0.145c-1.85,0.15-3.402,0.873-4.66,2.166c-1.256,1.293-1.885,2.906-1.885,4.844
		c0,1.936,0.611,3.441,1.832,4.512c1.223,1.074,2.701,1.539,4.439,1.396c1.736-0.143,3.188-0.635,4.357-1.479V207.062z"/>
	<path fill="#FFFFFF" d="M381.948,196.145v2.893l-9.764,0.799v4.82l8.77-0.719v2.736l-8.77,0.717v4.873l10.078-0.826v2.893
		l-13.168,1.078v-18.211L381.948,196.145z"/>
	<path fill="#FFFFFF" d="M399.383,208.316v-13.6l3.09-0.252v18.209l-3.352,0.275l-10.367-12.438v13.285l-3.09,0.254V195.84
		l3.09-0.252L399.383,208.316z"/>
</g>
<rect x="290.988" y="-32.801" transform="matrix(0.0801 0.9968 -0.9968 0.0801 344.9466 -221.5181)" fill="#FFFFFF" width="3" height="217.854"/>
<rect x="144.387" y="87.755" transform="matrix(0.0817 0.9967 -0.9967 0.0817 365.3005 67.7464)" fill="#FFFFFF" width="3" height="288.706"/>
<g display="none">
	<polygon display="inline" points="189.315,0.856 192.974,7.075 200.17,7.588 195.387,12.989 197.122,19.993 190.507,17.11 
		184.383,20.926 185.08,13.744 179.558,9.099 186.604,7.542 	"/>
</g>
<g display="none">
	<polygon display="inline" points="210.132,295.301 213.791,301.521 220.988,302.033 216.204,307.436 217.939,314.438 
		211.324,311.557 205.2,315.371 205.897,308.191 200.375,303.545 207.421,301.988 	"/>
</g>
<g>
	<path fill="#FFFFFF" d="M78.174,82.465c3.919-6.244,8.335-12.236,13.243-17.921c25.312-29.316,60.525-47.02,99.152-49.851
		c3.572-0.262,7.189-0.395,10.754-0.395c36.526,0,71.457,13.71,98.357,38.605c4.012,3.713,7.783,7.629,11.315,11.718l7.367-0.565
		c-4.467-5.485-9.343-10.685-14.607-15.557C275.743,22.575,239.365,8.298,201.323,8.298c-3.71,0-7.476,0.138-11.192,0.41
		c-40.226,2.948-76.896,21.385-103.254,51.914c-6.084,7.047-11.442,14.549-16.062,22.407L78.174,82.465z"/>
	<path fill="#FFFFFF" d="M329.308,227.269c-5.052,9.481-11.197,18.468-18.39,26.798c-25.312,29.315-60.524,47.019-99.152,49.85
		c-3.571,0.262-7.189,0.395-10.754,0.395c-36.525,0-71.456-13.71-98.356-38.604c-6.557-6.067-12.48-12.669-17.74-19.707
		l-7.031,0.539c6.011,8.479,12.928,16.383,20.695,23.571c28.013,25.925,64.39,40.201,102.431,40.201c3.71,0,7.476-0.138,11.193-0.41
		c40.226-2.948,76.896-21.385,103.255-51.913c8.333-9.651,15.315-20.146,20.882-31.258L329.308,227.269z"/>
</g>
</svg>
