<?xml version="1.0" encoding="utf-8"?>
<!-- Generator: Adobe Illustrator 16.0.0, SVG Export Plug-In . SVG Version: 6.00 Build 0)  -->
<!DOCTYPE svg PUBLIC "-//W3C//DTD SVG 1.1//EN" "http://www.w3.org/Graphics/SVG/1.1/DTD/svg11.dtd">
<svg version="1.1" id="Layer_1" xmlns="http://www.w3.org/2000/svg" xmlns:xlink="http://www.w3.org/1999/xlink" x="0px" y="0px"
	 width="409.819px" height="318.609px" viewBox="0 0 409.819 318.609" enable-background="new 0 0 409.819 318.609"
	 xml:space="preserve">
<rect x="181.468" y="-9.122" transform="matrix(0.9973 -0.0731 0.0731 0.9973 -11.0839 15.0626)" display="none" fill="#FFFFFF" width="37.334" height="336.001"/>
<g>
	<path fill="#FFFFFF" d="M64.428,83.519c5.174-9.291,11.328-18.123,18.438-26.358c27.284-31.6,65.241-50.684,106.877-53.735
		C193.593,3.143,197.492,3,201.333,3c39.373,0,77.026,14.778,106.022,41.613c6.354,5.88,12.16,12.222,17.388,18.955l3.558-0.273
		c-5.633-7.444-11.944-14.439-18.908-20.884C279.841,15.062,241.464,0,201.333,0c-3.914,0-7.888,0.146-11.81,0.433
		c-42.436,3.11-81.121,22.56-108.929,54.766c-7.688,8.903-14.283,18.489-19.746,28.593L64.428,83.519z"/>
	<path fill="#FFFFFF" d="M342.472,226.26c-5.973,12.553-13.671,24.382-23.001,35.188c-27.284,31.6-65.24,50.684-106.877,53.735
		c-3.851,0.282-7.75,0.426-11.592,0.426c-39.374,0-77.026-14.778-106.022-41.612c-8.825-8.167-16.589-17.229-23.216-26.99
		l-3.44,0.264c6.958,10.49,15.197,20.208,24.619,28.928c29.552,27.35,67.929,42.411,108.06,42.411c3.914,0,7.889-0.146,11.811-0.434
		c42.437-3.11,81.121-22.561,108.929-54.767c9.892-11.456,17.976-24.044,24.159-37.412L342.472,226.26z"/>
</g>
<text transform="matrix(1.0049 -0.0823 0 1 -3.9058 216.6973)"><tspan x="0" y="0" fill="#FFFFFF" font-family="'CanterBold'" font-size="124.4175" letter-spacing="-1.984">CO</tspan><tspan x="85.848" y="-0.001" fill="#FFFFFF" font-family="'CanterBold'" font-size="124.4175">T</tspan><tspan x="121.182" y="0" fill="#FFFFFF" font-family="'CanterBold'" font-size="124.4175" letter-spacing="-1.984">TONTAILS</tspan></text>
<text transform="matrix(1.0049 -0.0823 0 1 0 116.7949)" fill="#FFFFFF" font-family="'Montserrat-Regular'" font-size="26.0511" letter-spacing="-0.992">DANSEKLUBB</text>
<text transform="matrix(1.0049 -0.0823 0 1 294.9009 221.4863)" fill="#FFFFFF" font-family="'Montserrat-Regular'" font-size="26.0511" letter-spacing="-0.992">BERGEN</text>
<rect x="290.988" y="-32.801" transform="matrix(0.0801 0.9968 -0.9968 0.0801 344.9466 -221.5181)" fill="#FFFFFF" width="3" height="217.854"/>
<rect x="144.387" y="87.755" transform="matrix(0.0817 0.9967 -0.9967 0.0817 365.3005 67.7464)" fill="#FFFFFF" width="3" height="288.706"/>
<g display="none">
	<polygon display="inline" points="189.315,0.856 192.974,7.075 200.17,7.588 195.387,12.989 197.122,19.993 190.507,17.11 
		184.383,20.926 185.08,13.744 179.558,9.099 186.604,7.542 	"/>
</g>
<g display="none">
	<polygon display="inline" points="210.132,295.301 213.791,301.521 220.988,302.033 216.204,307.436 217.939,314.438 
		211.324,311.557 205.2,315.371 205.897,308.191 200.375,303.545 207.421,301.988 	"/>
</g>
<g>
	<path fill="#FFFFFF" d="M78.174,82.465c3.919-6.244,8.335-12.236,13.243-17.921c25.312-29.316,60.525-47.02,99.152-49.851
		c3.572-0.262,7.189-0.395,10.754-0.395c36.526,0,71.457,13.71,98.357,38.605c4.012,3.713,7.783,7.629,11.315,11.718l7.367-0.565
		c-4.467-5.485-9.343-10.685-14.607-15.557C275.743,22.575,239.365,8.298,201.323,8.298c-3.71,0-7.476,0.138-11.192,0.41
		c-40.226,2.948-76.896,21.385-103.254,51.914c-6.084,7.047-11.442,14.549-16.062,22.407L78.174,82.465z"/>
	<path fill="#FFFFFF" d="M329.308,227.269c-5.052,9.481-11.197,18.468-18.39,26.798c-25.312,29.315-60.524,47.019-99.152,49.85
		c-3.571,0.262-7.189,0.395-10.754,0.395c-36.525,0-71.456-13.71-98.356-38.604c-6.557-6.067-12.48-12.669-17.74-19.707
		l-7.031,0.539c6.011,8.479,12.928,16.383,20.695,23.571c28.013,25.925,64.39,40.201,102.431,40.201c3.71,0,7.476-0.138,11.193-0.41
		c40.226-2.948,76.896-21.385,103.255-51.913c8.333-9.651,15.315-20.146,20.882-31.258L329.308,227.269z"/>
</g>
</svg>
