<?xml version="1.0" encoding="utf-8"?>
<!-- Generator: Adobe Illustrator 16.0.0, SVG Export Plug-In . SVG Version: 6.00 Build 0)  -->
<!DOCTYPE svg PUBLIC "-//W3C//DTD SVG 1.1//EN" "http://www.w3.org/Graphics/SVG/1.1/DTD/svg11.dtd">
<svg version="1.1" id="Layer_1" xmlns="http://www.w3.org/2000/svg" xmlns:xlink="http://www.w3.org/1999/xlink" x="0px" y="0px"
	 width="423.471px" height="115.883px" viewBox="0 0 423.471 115.883" enable-background="new 0 0 423.471 115.883"
	 xml:space="preserve">
<g>
	<path fill="#FFFFFF" d="M212.005,12.111l8.536,15.524l-8.536,15.524l-8.536-15.524L212.005,12.111 M212.005,0
		c-0.771,0-1.543,0.388-1.97,1.165l-13.959,25.387c-0.371,0.675-0.371,1.492,0,2.166l13.959,25.387
		c0.427,0.777,1.198,1.165,1.97,1.165s1.543-0.388,1.97-1.165l13.959-25.387c0.371-0.674,0.371-1.491,0-2.166L213.975,1.165
		C213.548,0.388,212.776,0,212.005,0L212.005,0z"/>
</g>
<path fill="#FFFFFF" d="M399.064,54.66c6.055-0.39,13.158-3.404,14.467-8.559c1.083-4.245,7.098-10.047,9.939-10.563
	c-1.666-2.188-8.992-6.3-14.101-6.909c-7.644-0.917-13.271,2.104-15.794,3.476c-2.521,1.372-3.136-0.535-1.682-2.45
	c1.697-2.237,2.729-6.447,2.688-7.804c-0.037-1.415-5.599-1.84-8.417-1.236c-4.056,0.859-10.135-2.556-17.056,3.731
	c-6.905,6.268-13.348,18.509-21.218,25.49c-7.89,6.958-19.271,11.491-30.346,11.38c-3.208-0.039-2.565-1.956,1.118-2.113
	c3.694-0.161,14.319-2.079,21.072-6.344c3.431-2.172,6.204-6.659,2.17-7.576c-4.021-0.91-5.511-3.21-7.284-3.838
	c-1.774-0.63-0.714-0.377,0.864-1.654c1.577-1.27,3.645-3.484,6.247-8.431c2.594-4.936,6.506-10.096,10.455-10.723
	c3.936-0.633,3.513-2.664-1.716-3.602c-8.317-1.504-23.478,0.785-28.34,6.42c-2.304,2.699-3.46,0.882-2.101-1.108
	c1.348-1.995,2.583-4.346,2.851-6.599c0.306-2.264-1.317-4.307-3.875-1.754c-2.557,2.57-6.612,3.435-11.109,2.269
	c-4.497-1.16-12.836-0.743-18.175,4.257c-0.353,0.332-0.728,0.665-1.112,0.997c-17.382-12.02-40.661-15.716-57.729-0.47
	c-6.79,6.066-10.563,15.545-10.644,24.696c-0.245,1.314-0.407,2.641-0.505,3.973c-0.499,0.178-6.792,18.228-7.175,25.987
	c-0.298,6.032-0.144,16.027,4.582,20.616c3.106,3.017,9.286,4.871,12.392,0.631c4.269-5.829-1.995-12.01-4.712-16.999
	c-3.051-5.601-4.311-11.997-4.066-18.332c2.693,10.958,10.115,20.771,21.023,25.167c10.637,4.287,22.167,3.5,31.693-3.033
	c8.64-5.925,13.283-16.017,12.395-26.378c-0.19-2.224-0.67-4.358-1.376-6.387c3.328,3.066,7.351,6.056,12.542,8.793
	c16.949,8.901,33.771,10.015,48.278,5.322c14.714-4.767,42.811-11.245,55.666,11.862c11.132,19.978,0.205,21.95,2.097,39.017
	C430.003,100.161,416.805,61.707,399.064,54.66z M258.997,14.524c9.53,0.025,18.656,3.847,26.477,9.246
	c-1.371,0.873-2.775,1.54-4.083,1.823c-15.096-13.226-36.813-12.146-50.693,1.128C237.206,18.177,248.634,14.496,258.997,14.524z
	 M256.982,26.957c2.061,0.054,4.106,0.442,5.996,1.241c1.759,0.742,3.332,1.842,4.6,3.271c1.441,1.627,2.432,3.822,4.421,4.889
	c-1.007-0.54-2.05-1.027-3.136-1.443c-9.205-3.529-21.554-0.748-27.307,7.568c-0.29,0.42-0.558,0.846-0.812,1.276
	c-0.714,1.042-1.332,2.162-1.822,3.371c-2.676,6.596-1.869,13.649,4.05,18.052c4.681,3.48,12.617,2.403,15.004-3.271
	c1.987-4.726,0.55-12-5.097-13.56c-4.169-1.151-8.535,0.317-11.071,3.478c0.071-1.166,0.328-2.292,0.743-3.365
	c1.13-2.265,2.746-4.305,4.394-5.785c3.809-3.425,9.258-4.554,14.215-4.257c7.06,0.422,12.004,5.594,14.617,11.788
	c2.839,6.729,0.064,15.114-5.084,19.956c-5.334,5.016-13.172,6.933-20.405,5.804c-7.234-1.129-13.848-5.075-18.979-10.297
	c-3.978-4.048-7.3-9.498-6.386-15.099c0.82-5.026,4.8-8.867,8.655-12.195c5.229-4.514,10.855-8.925,17.528-10.71
	C252.995,27.164,254.996,26.904,256.982,26.957z M270.294,22.953c-0.577-0.105-1.169-0.201-1.767-0.29
	c-12.967-3.223-26.909,3.936-36.688,12.209c-2.229,1.887-4.27,3.947-6.12,6.15c0.742-2.043,1.685-4.024,2.845-5.905
	C237.509,20.618,255.748,16.497,270.294,22.953z M273.297,78.961c-7.968,7.241-19.325,8.057-29.109,4.604
	c-9.536-3.364-15.941-10.967-18.812-19.818c3.112,4.946,7.498,9.068,12.826,12.104c9.062,5.162,19.951,5.335,29.312,0.996
	c8.704-4.035,14.5-13.482,12.99-23.111c-0.293-1.869-0.808-3.696-1.508-5.439c0.984,1.707,1.787,3.54,2.358,5.469
	C284.136,63.148,280.287,72.608,273.297,78.961z M286.335,46.394c0,0-3.082-2.072-3.344-2.386
	c20.396,4.968,31.492,3.314,41.247-10.928c6.154-8.99,12.324-10.349,20.344-11.139c-13.188,3.846-14.193,11.847-25.256,21.893
	C307.619,54.489,286.335,46.394,286.335,46.394z M347.267,57.714c0,0,15.312-11.358,22.469-21.405
	c8.816-12.385,20.53-12.509,20.53-12.509s-12.371,5.471-16.648,11.741C359.467,56.298,347.267,57.714,347.267,57.714z
	 M367.307,56.85c0,0,7.779-2.608,16.401-7.283c3.783-2.054,8.337-6.174,11.368-9.089c10.745-10.342,20.961-5.822,20.961-5.822
	s-9.526,0.43-16.277,5.819c-6.065,4.842-9.973,9.789-17.021,12.608C369.204,58.496,367.307,56.85,367.307,56.85z M406.392,109.253
	c3.432-6.107,8.101-15.946,4.092-28.526c-5.198-16.273-21.437-22.457-21.437-22.457s14.351,1.302,21.929,18.7
	C416.975,90.749,412.63,104.351,406.392,109.253z"/>
<path fill="#FFFFFF" d="M20.397,115.883c1.893-17.066-9.034-19.039,2.098-39.017C35.35,53.759,63.446,60.237,78.161,65.004
	c14.506,4.692,31.329,3.579,48.278-5.322c5.191-2.737,9.214-5.727,12.541-8.793c-0.706,2.028-1.185,4.163-1.375,6.387
	c-0.89,10.361,3.754,20.453,12.395,26.378c9.526,6.533,21.056,7.32,31.692,3.033c10.909-4.396,18.331-14.209,21.023-25.167
	c0.244,6.335-1.016,12.731-4.065,18.332c-2.718,4.989-8.98,11.17-4.713,16.999c3.105,4.24,9.286,2.386,12.393-0.631
	c4.726-4.589,4.88-14.584,4.582-20.616c-0.384-7.76-6.676-25.81-7.175-25.987c-0.098-1.332-0.261-2.658-0.505-3.973
	c-0.081-9.151-3.854-18.63-10.645-24.696c-17.068-15.246-40.347-11.55-57.729,0.47c-0.385-0.332-0.759-0.665-1.111-0.997
	c-5.339-5-13.678-5.417-18.175-4.257c-4.498,1.166-8.553,0.302-11.11-2.269c-2.558-2.553-4.181-0.51-3.875,1.754
	c0.269,2.253,1.504,4.604,2.851,6.599c1.359,1.99,0.203,3.808-2.1,1.108c-4.862-5.635-20.022-7.924-28.34-6.42
	c-5.229,0.938-5.652,2.969-1.717,3.602c3.949,0.627,7.861,5.787,10.455,10.723c2.604,4.946,4.67,7.161,6.248,8.431
	c1.578,1.277,2.639,1.024,0.863,1.654c-1.772,0.628-3.262,2.928-7.283,3.838c-4.035,0.917-1.262,5.404,2.17,7.576
	c6.753,4.265,17.377,6.183,21.071,6.344c3.685,0.157,4.327,2.074,1.119,2.113c-11.075,0.111-22.456-4.422-30.347-11.38
	c-7.869-6.981-14.312-19.223-21.218-25.49c-6.92-6.287-12.999-2.872-17.056-3.731c-2.817-0.604-8.38-0.179-8.416,1.236
	c-0.041,1.356,0.989,5.566,2.688,7.804c1.453,1.915,0.839,3.822-1.683,2.45c-2.522-1.372-8.149-4.393-15.794-3.476
	C8.992,29.238,1.665,33.35,0,35.538c2.842,0.517,8.856,6.318,9.939,10.563c1.309,5.154,8.412,8.169,14.467,8.559
	C6.666,61.707-6.532,100.161,20.397,115.883z M192.772,26.722c-13.88-13.274-35.597-14.354-50.693-1.128
	c-1.308-0.283-2.712-0.95-4.083-1.823c7.82-5.399,16.947-9.221,26.477-9.246C174.836,14.496,186.265,18.177,192.772,26.722z
	 M172.364,27.67c6.674,1.785,12.3,6.196,17.528,10.71c3.855,3.328,7.836,7.169,8.656,12.195c0.913,5.601-2.408,11.051-6.386,15.099
	c-5.133,5.222-11.745,9.168-18.979,10.297s-15.072-0.788-20.406-5.804c-5.148-4.842-7.922-13.227-5.083-19.956
	c2.612-6.194,7.558-11.366,14.617-11.788c4.957-0.297,10.406,0.832,14.214,4.257c1.647,1.48,3.264,3.521,4.395,5.785
	c0.414,1.073,0.671,2.199,0.742,3.365c-2.536-3.16-6.902-4.629-11.07-3.478c-5.646,1.56-7.085,8.834-5.097,13.56
	c2.387,5.674,10.323,6.751,15.003,3.271c5.919-4.402,6.726-11.456,4.051-18.052c-0.49-1.209-1.109-2.329-1.822-3.371
	c-0.256-0.431-0.522-0.856-0.812-1.276c-5.754-8.316-18.103-11.098-27.307-7.568c-1.086,0.416-2.13,0.903-3.137,1.443
	c1.99-1.066,2.98-3.262,4.422-4.889c1.267-1.43,2.841-2.529,4.6-3.271c1.89-0.799,3.935-1.188,5.995-1.241
	C168.474,26.904,170.475,27.164,172.364,27.67z M194.905,35.117c1.16,1.881,2.104,3.862,2.846,5.905
	c-1.852-2.203-3.892-4.264-6.121-6.15c-9.778-8.273-23.72-15.432-36.687-12.209c-0.598,0.089-1.19,0.185-1.768,0.29
	C167.723,16.497,185.962,20.618,194.905,35.117z M142.116,53.765c0.571-1.929,1.373-3.762,2.357-5.469
	c-0.699,1.743-1.214,3.57-1.507,5.439c-1.511,9.629,4.286,19.076,12.989,23.111c9.361,4.339,20.251,4.166,29.312-0.996
	c5.328-3.035,9.714-7.157,12.827-12.104c-2.871,8.852-9.275,16.454-18.812,19.818c-9.785,3.452-21.143,2.637-29.109-4.604
	C143.184,72.608,139.335,63.148,142.116,53.765z M104.145,43.834C93.081,33.788,92.075,25.787,78.888,21.941
	c8.021,0.79,14.189,2.148,20.345,11.139c9.754,14.242,20.852,15.896,41.247,10.928c-0.263,0.313-3.344,2.386-3.344,2.386
	S115.852,54.489,104.145,43.834z M49.854,35.541C45.575,29.271,33.205,23.8,33.205,23.8s11.713,0.124,20.529,12.509
	c7.158,10.047,22.47,21.405,22.47,21.405S64.004,56.298,49.854,35.541z M40.732,53.083c-7.049-2.819-10.957-7.767-17.021-12.608
	c-6.751-5.39-16.277-5.819-16.277-5.819s10.216-4.52,20.96,5.822c3.032,2.915,7.585,7.035,11.368,9.089
	c8.623,4.675,16.401,7.283,16.401,7.283S54.267,58.496,40.732,53.083z M12.495,76.97c7.577-17.398,21.928-18.7,21.928-18.7
	s-16.237,6.184-21.437,22.457c-4.009,12.58,0.66,22.419,4.093,28.526C10.84,104.351,6.495,90.749,12.495,76.97z"/>
</svg>
