<?xml version="1.0" encoding="utf-8"?>
<!-- Generator: Adobe Illustrator 16.0.0, SVG Export Plug-In . SVG Version: 6.00 Build 0)  -->
<!DOCTYPE svg PUBLIC "-//W3C//DTD SVG 1.1//EN" "http://www.w3.org/Graphics/SVG/1.1/DTD/svg11.dtd">
<svg version="1.1" id="Layer_1" xmlns="http://www.w3.org/2000/svg" xmlns:xlink="http://www.w3.org/1999/xlink" x="0px" y="0px"
	 width="442.862px" height="26.832px" viewBox="0 0 442.862 26.832" enable-background="new 0 0 442.862 26.832"
	 xml:space="preserve">
<g>
	<path fill="#FFFFFF" d="M0,13.416c0,0,1.73-0.129,4.974-0.372c3.244-0.206,8.001-0.584,14.056-0.915
		c6.055-0.349,13.407-0.814,21.84-1.188c8.434-0.413,17.948-0.882,28.328-1.275c20.759-0.811,44.978-1.521,70.927-1.998
		c6.487-0.104,13.083-0.21,19.759-0.317c6.677-0.1,13.434-0.188,20.246-0.231c13.624-0.145,27.463-0.166,41.302-0.202
		c13.839,0.035,27.679,0.046,41.302,0.193c6.812,0.044,13.569,0.121,20.245,0.227c6.677,0.106,13.272,0.21,19.76,0.314
		c12.974,0.231,25.517,0.54,37.409,0.871c11.894,0.342,23.138,0.726,33.518,1.126c10.38,0.396,19.895,0.862,28.328,1.28
		c8.433,0.377,15.785,0.841,21.84,1.194c6.055,0.332,10.812,0.711,14.056,0.919c3.244,0.244,4.974,0.374,4.974,0.374
		s-1.729,0.13-4.974,0.374c-3.243,0.208-8.001,0.587-14.056,0.919c-6.055,0.354-13.407,0.817-21.84,1.195
		c-8.434,0.418-17.948,0.884-28.328,1.279c-10.38,0.401-21.624,0.785-33.518,1.127c-11.893,0.331-24.436,0.64-37.409,0.871
		c-6.487,0.103-13.083,0.208-19.76,0.313c-6.676,0.105-13.434,0.183-20.245,0.227c-13.623,0.146-27.463,0.157-41.302,0.193
		c-13.839-0.037-27.679-0.058-41.302-0.203c-6.812-0.043-13.569-0.132-20.246-0.23c-6.676-0.107-13.271-0.213-19.759-0.317
		c-25.949-0.477-50.168-1.187-70.927-1.998c-10.379-0.394-19.894-0.861-28.328-1.274c-8.434-0.375-15.786-0.84-21.84-1.189
		c-6.055-0.33-10.812-0.709-14.056-0.915C1.73,13.545,0,13.416,0,13.416z"/>
</g>
<circle fill="#FFFFFF" cx="221.432" cy="13.416" r="13.416"/>
<circle fill="#FFFFFF" cx="192.924" cy="13.416" r="9.774"/>
<circle fill="#FFFFFF" cx="167.515" cy="13.416" r="8.518"/>
<polygon fill="#FFFFFF" points="136.517,2.245 79.765,13.416 136.517,24.586 153.894,13.416 "/>
<circle fill="#FFFFFF" cx="249.648" cy="13.416" r="9.774"/>
<circle fill="#FFFFFF" cx="275.058" cy="13.416" r="8.517"/>
<polygon fill="#FFFFFF" points="306.056,2.245 362.809,13.416 306.056,24.586 288.679,13.416 "/>
</svg>
