<?xml version="1.0" encoding="utf-8"?>
<!-- Generator: Adobe Illustrator 16.0.0, SVG Export Plug-In . SVG Version: 6.00 Build 0)  -->
<!DOCTYPE svg PUBLIC "-//W3C//DTD SVG 1.1//EN" "http://www.w3.org/Graphics/SVG/1.1/DTD/svg11.dtd">
<svg version="1.1" id="Layer_1" xmlns="http://www.w3.org/2000/svg" xmlns:xlink="http://www.w3.org/1999/xlink" x="0px" y="0px"
	 width="323.352px" height="92.803px" viewBox="0 0 323.352 92.803" enable-background="new 0 0 323.352 92.803"
	 xml:space="preserve">
<path fill="#FFFFFF" d="M0,51.614c0,6.347,1.801,11.882,5.374,16.439c3.416,4.4,7.819,7.982,13.024,10.913
	c5.223,2.768,10.915,4.723,17.108,6.187c6.187,1.304,11.717,1.954,16.921,1.954c2.926,0,5.686-0.161,8.438-0.325
	c0.025-0.002,0.051-0.004,0.077-0.007c2.597-0.305,5.193-0.758,7.66-1.35c0.284-0.068,0.577-0.019,0.824,0.137
	c7.78,4.877,18.234,7.24,31.194,7.24c11.891,0,24.108-3.255,36.644-9.768c7.488-3.909,15.295-8.301,22.958-13.027
	c5.042-3.09,9.928-6.346,14.976-9.602c12.867-8.63,25.723-17.1,38.746-25.729c12.904-8.282,25.656-14.698,38.4-19.087
	c0.492-0.17,1.051,0.019,1.312,0.468c1.035,1.778,1.709,3.789,2.131,5.92c0.443,2.369,0.221,4.867-0.434,7.743
	c-0.117,0.514,0.133,1.043,0.611,1.265l0.028,0.013c0.66,0.306,1.425-0.097,1.562-0.811c0.447-2.345,0.65-4.764,0.516-7.068
	c0-2.388-0.483-4.771-1.449-7.052c-0.252-0.594,0.078-1.283,0.693-1.477c6.922-2.174,13.861-3.194,20.942-3.194
	c14.169,0,24.438,2.929,31.259,8.792c6.849,6.024,10.271,13.189,10.271,21.653c0,3.419-1.301,6.838-3.916,9.934
	c-2.444,3.419-5.866,6.513-9.933,9.28c-4.066,2.769-8.789,5.208-14.163,6.997c-5.38,1.792-10.909,2.611-16.771,2.611
	c-9.934,0-19.048-1.633-27.355-5.214c-5.912-2.502-11.271-5.48-16.07-8.991c-1.069-0.782-2.348,0.604-1.494,1.616
	c1.309,1.554,2.771,3.043,4.385,4.441c3.896,3.263,7.969,6.193,12.366,8.636c4.561,2.276,9.121,4.231,13.675,5.37
	c4.561,1.305,8.795,1.792,12.705,1.792c6.018,0,12.047-0.979,17.908-2.931c6.025-1.955,11.393-4.397,16.115-7.816
	c4.729-3.259,8.477-7.162,11.572-11.726c3.084-4.392,4.541-9.277,4.541-14.324c0-6.513-1.776-12.049-5.204-16.605
	c-3.571-4.401-7.976-8.145-13.175-10.91c-5.223-2.771-10.909-4.726-17.113-6.189c-6.182-1.301-11.717-1.948-16.766-1.948
	c-3.259,0-6.344,0.159-9.608,0.484c-3.22,0.463-6.302,1.065-9.506,1.953c-0.362,0.1-0.747,0.007-1.027-0.244
	c-2.859-2.556-6.458-4.387-10.792-5.775C235.599,0.813,229.738,0,222.738,0c-12.048,0-24.585,3.582-37.608,10.422
	c-8.145,4.392-16.445,9.117-24.909,14.328c-4.723,3.091-9.608,6.184-14.488,9.439c-13.361,8.955-26.71,17.587-40.391,26.217
	c-13.307,8.499-26.473,14.473-39.626,18.071c-0.368,0.101-0.771,0.009-1.053-0.248c-3.803-3.474-5.032-7.762-3.84-12.862
	c0.122-0.521-0.12-1.057-0.604-1.281l-0.021-0.01c-0.66-0.307-1.432,0.098-1.565,0.813c-0.845,4.533,0.081,8.948,2.878,13.149
	c0.446,0.67,0.06,1.575-0.734,1.708c-2.347,0.392-4.67,0.781-6.885,1.174c-2.921,0.488-5.855,0.65-8.776,0.65
	c-14.006,0-24.428-2.934-31.271-8.792C7.162,66.756,3.747,59.59,3.747,51.286c0-3.401,1.29-6.806,3.71-10.212
	c0.021-0.029,0.042-0.058,0.064-0.085c2.608-3.241,5.858-6.323,10.069-9.077c4.072-2.934,8.794-5.207,14.174-6.999
	c5.205-1.793,10.734-2.769,16.596-2.769c9.928,0,19.048,1.789,27.524,5.37c5.803,2.392,11.134,5.421,15.985,9.032
	c1.071,0.798,2.359-0.6,1.494-1.616c-1.34-1.574-2.823-3.06-4.46-4.482c-3.747-3.259-7.813-6.189-12.374-8.632
	c-4.397-2.443-8.958-4.231-13.668-5.374c-4.572-1.301-8.801-1.792-12.705-1.792c-6.024,0-12.054,0.982-17.91,2.771
	c-6.03,1.951-11.235,4.557-15.963,7.812c-4.723,3.426-8.62,7.326-11.717,11.887C1.626,41.681,0,46.565,0,51.614z M76.483,85.353
	c-1.012-0.351-1.019-1.781,0.002-2.106c7.974-2.537,16.093-5.972,24.459-10.304c9.283-4.889,18.572-10.256,27.681-16.12
	c9.289-5.858,18.397-11.886,27.518-18.069c1.313-0.979,2.771-1.955,4.078-2.771c7.645-5.048,14.976-9.768,22.145-14.003
	c8.464-4.882,16.765-8.954,24.734-12.373c7.994-3.256,15.481-4.886,22.476-4.886c5.439,0,10.517,1.196,15.145,3.484
	c0.883,0.437,0.779,1.728-0.154,2.045c-12.418,4.219-25.108,10.316-37.947,18.567c-13.669,8.632-27.193,17.424-40.542,26.051
	c-1.958,1.304-3.903,2.605-5.855,3.909c-11.24,7.166-21.976,13.678-32.409,19.376c-12.367,6.676-23.603,9.932-34.03,9.932
	c-2.921,0-6.187-0.163-9.759-0.813C81.385,86.812,78.911,86.191,76.483,85.353z"/>
</svg>
