<?xml version="1.0" encoding="utf-8"?>
<!-- Generator: Adobe Illustrator 16.0.0, SVG Export Plug-In . SVG Version: 6.00 Build 0)  -->
<!DOCTYPE svg PUBLIC "-//W3C//DTD SVG 1.1//EN" "http://www.w3.org/Graphics/SVG/1.1/DTD/svg11.dtd">
<svg version="1.1" id="Layer_1" xmlns="http://www.w3.org/2000/svg" xmlns:xlink="http://www.w3.org/1999/xlink" x="0px" y="0px"
	 width="163.045px" height="121.603px" viewBox="0 0 163.045 121.603" enable-background="new 0 0 163.045 121.603"
	 xml:space="preserve">
<g>
	<g>
		<g>
			<path fill="#FFFFFF" d="M60.201,43.957c-0.497,0.479-0.75,0.685-0.75,0.676c-0.085,0.125-0.19,0.332-0.321,0.605
				c-0.177,0.353-0.295,0.58-0.358,0.69c-1.167,1.988-2.285,4.59-3.347,7.798c-0.278,0.894-0.615,2.048-1.008,3.496
				c-0.472,1.729-0.797,2.896-0.974,3.474c-0.126,0.472-0.388,1.158-0.78,2.071c-0.388,0.938-0.649,1.631-0.775,2.086
				c-0.046,0.122-0.067,0.288-0.067,0.506c0,0.229-0.013,0.4-0.029,0.497c-0.089,0.301-0.24,0.771-0.456,1.376
				c-0.283,0.773-0.472,1.295-0.552,1.578c-0.177,0.527-0.493,1.426-0.944,2.689c-0.435,1.251-0.78,2.258-1.037,3.023
				c-0.042,0.163-0.114,0.393-0.198,0.701c-0.084,0.342-0.147,0.568-0.198,0.699c-1.357,4.653-2.638,8.46-3.828,11.413
				c-0.068,0.597-0.228,1.455-0.489,2.58c0.308,1.334,0.986,1.989,2.044,1.973c0,0.083,0.046,0.283,0.13,0.616
				c0.089,0.298,0.08,0.503-0.025,0.622c-0.135,0.203-0.35,0.339-0.653,0.389c-0.088-0.004-0.24,0.017-0.455,0.043
				c-0.173,0.017-0.329,0.038-0.455,0.051c-0.54,0.104-2.058,0.518-4.549,1.191c-2.1,0.533-3.744,0.846-4.937,0.94
				c-1.948,0.155-2.934,0.213-2.955,0.193c0.738-1.66,1.104-2.61,1.104-2.88c-0.046-0.741-0.637-2.629-1.788-5.656
				c-0.86-2.341-1.589-4.062-2.18-5.221c-0.168,0.317-0.341,0.803-0.514,1.458c-0.194,0.81-0.346,1.376-0.456,1.682
				c-0.649,1.758-1.02,2.765-1.108,3.042c-0.822,2.954-1.244,4.667-1.265,5.151c-0.067,0.786-0.017,1.351,0.131,1.69
				c0.151,0.438,0.497,0.694,1.041,0.779c0.067,0.148-0.034,0.528-0.291,1.111c-1.387,0.231-3.524,0.606-6.403,1.035
				c-2.53,0.364-4.676,0.606-6.43,0.775c0.021-0.222-0.071-0.306-0.291-0.269c-0.046-0.298,0.143-0.636,0.548-1.021
				c0.501-0.462,0.784-0.804,0.847-0.996c0.261-0.703-0.076-2.494-1.007-5.43c-0.105-0.37-0.375-1.186-0.81-2.42
				c-0.393-1.094-0.675-1.938-0.848-2.555c-0.278-0.92-0.712-2.207-1.294-3.824c-0.308-0.819-0.729-2.135-1.27-3.935
				c-0.543-1.734-0.974-3.055-1.302-3.979c-0.603-1.65-1.505-4.405-2.694-8.299c-1.062-3.488-1.935-6.101-2.631-7.83
				c-0.346-0.912-1.434-2.491-3.25-4.807c0.109-0.059,0.177-0.135,0.193-0.186c1.345-0.164,3.264-0.227,5.751-0.266
				c2.752-0.037,4.646-0.18,5.687-0.33c0.147-0.03,0.354-0.08,0.616-0.144c0.257-0.073,0.456-0.107,0.582-0.144
				c0.435-0.064,0.793-0.004,1.075,0.196c0,0.311-0.215,0.729-0.653,1.216c-0.515,0.611-0.822,1.042-0.906,1.294
				c0.24,1.9,1.125,5.041,2.664,9.386c3.335,9.562,5.211,14.889,5.624,16.128c2.268-6.343,3.786-10.903,4.54-13.593
				c0.78-0.277,2.15-0.54,4.098-0.789c2.142-0.284,3.702-0.594,4.676-0.89c0.299,0.067,0.531,0.298,0.683,0.706
				c0.038,0.119,0.089,0.293,0.127,0.547c0.067,0.272,0.118,0.482,0.164,0.624c0.24,0.727,0.831,2.57,1.783,5.513
				c0.784,2.422,1.379,4.248,1.792,5.456c0.042-0.177,0.274-0.945,0.679-2.266c0.304-0.954,0.468-1.706,0.489-2.251
				c0.78-1.845,1.72-4.538,2.825-8.085c1.518-4.774,2.449-7.676,2.795-8.696c0.046-0.113,0.291-0.771,0.746-1.962
				c0.329-0.908,0.573-1.66,0.746-2.268c0.519-1.858,0.553-3.317,0.097-4.383c-0.042-0.091-0.16-0.239-0.354-0.417
				c-0.198-0.238-0.329-0.417-0.392-0.536c-0.236-0.397-0.05-0.704,0.548-0.937c0.156-0.064,0.948-0.26,2.373-0.599
				c0.801-0.206,2.471-0.55,5.004-1.064c2.121-0.438,3.702-0.846,4.747-1.173c-0.05,0.014,0.245-0.136,0.873-0.448
				c0.324-0.151,0.594-0.168,0.81-0.027C60.623,43.424,60.505,43.703,60.201,43.957z"/>
			<path fill="#FFFFFF" d="M74.914,85.139c-2.567,0.776-5.135,1.546-7.702,2.303c-2.1,0.619-3.326,0.914-3.667,0.903
				c-0.068-0.216,0.063-0.507,0.388-0.862c0.346-0.413,0.527-0.735,0.552-0.962c1.088-1.066,1.754-2.501,2.011-4.264
				c-0.021,0.141,0.055-1.559,0.228-5.1c0.089-1.754,0.055-7.68-0.097-17.737c-0.021-0.71,0-1.947,0.063-3.729
				c0.067-1.941,0.101-3.402,0.101-4.372c0.021-3.614-0.325-6.22-1.037-7.857c-0.13-0.282-0.59-0.763-1.37-1.455
				c0.245-0.375,0.687-0.664,1.332-0.903c0.198-0.058,0.481-0.132,0.847-0.214c0.405-0.094,0.691-0.162,0.844-0.207
				c3.248-0.958,6.495-1.937,9.742-2.922c0.653-0.249,0.986-0.375,1.008-0.382c0.282-0.035,0.456,0.056,0.522,0.263
				c-0.046-0.138-0.392,0.423-1.037,1.681c-1.045,1.986-1.53,6.382-1.467,13.209c0.021,1.511-0.042,4.423-0.194,8.736
				c-0.13,3.943-0.16,7.003-0.097,9.228c0.021,0.457,0.046,1.588,0.063,3.378c0,1.324,0.033,2.359,0.101,3.132
				c0.147,2.156,0.586,3.818,1.298,4.985c0.063,0.116,0.304,0.364,0.713,0.762c0.282,0.277,0.459,0.62,0.522,1.013
				C78.194,84.077,76.967,84.543,74.914,85.139z"/>
			<path fill="#FFFFFF" d="M121.343,35.272c-0.691,0.093-1.079,0.159-1.181,0.183c-0.202-0.104-0.464-0.321-0.775-0.659
				c-0.295-0.369-0.549-0.594-0.751-0.697c-1.593,0.183-5.421,1.047-11.476,2.765c-0.472,6.15-0.674,13.145-0.59,20.988
				c0.067,5.808,0.287,10.048,0.675,12.731c0.151,1.055,0.48,1.959,0.97,2.738c0.084,0.171,0.278,0.354,0.548,0.56
				c0.27,0.188,0.43,0.356,0.506,0.513c-0.102,0.356-0.312,0.564-0.657,0.632c-0.085,0.006-0.236,0.014-0.431,0.024
				c-0.202,0.004-0.362,0.031-0.446,0.054c-1.991,0.501-4.739,1.298-8.221,2.408c-0.025,0.007-0.363,0.13-1.012,0.361
				c-0.632,0.234-1.164,0.416-1.61,0.572c-1.433,0.438-2.192,0.52-2.277,0.215c0.034,0.143,0.489-0.44,1.366-1.769
				c0.557-0.881,0.911-1.82,1.028-2.798c0.11-0.791,0.278-3.631,0.489-8.532c0.051-0.858,0.084-9.485,0.102-25.874
				c-1.08,0.139-4.014,0.931-8.769,2.409c-2.057,0.646-3.052,0.948-2.985,0.903c-0.329,0.184-0.641,0.573-0.944,1.163
				c-0.371,0.711-0.607,1.137-0.717,1.254c-0.109-0.008-0.548,0.142-1.298,0.462c-0.674,0.29-1.134,0.345-1.4,0.173
				c0.021-0.132,0.38-1.06,1.075-2.729c0.435-1.085,0.806-2.016,1.143-2.758c1.206-2.77,2.049-4.51,2.529-5.22
				c15.894-4.931,25.817-7.624,29.78-8.73c0.666-0.192,1.291-0.27,1.855-0.255c0.455,0.749,1.054,1.81,1.82,3.162
				c0.902,1.632,1.526,2.702,1.847,3.21c0.7,1.179,1.037,1.879,1.037,2.064C122.278,35.04,121.857,35.204,121.343,35.272z"/>
			<path fill="#FFFFFF" d="M151.586,20.846c0,0.004,1.392-0.167,4.157-0.367c3.229-0.285,5.564-0.289,6.989-0.142
				c0.094,0.26,0,0.547-0.252,0.843c-0.197,0.231-0.394,0.463-0.591,0.695c-0.894,1.737-1.307,4.875-1.272,9.401
				c0.066,5.328-0.051,12.75-0.354,22.266c-0.025,0.423-0.017,0.996,0.033,1.711c0.042,0.809,0.051,1.356,0.042,1.651
				c0,3.769,0.38,6.323,1.155,7.646c0.025,0.144,0.329,0.341,0.911,0.617c0.522,0.251,0.725,0.563,0.607,0.909
				c-0.068,0.305-0.911,0.452-2.488,0.479c-0.497,0.026-1.112,0.032-1.854,0.013c-0.801,0.009-1.239,0.012-1.299,0.014
				c-0.699,0.004-1.771,0.017-3.246,0.042c-1.323,0.033-2.149,0.083-2.504,0.111c-1.88,0.167-2.875,0.247-2.985,0.164
				c0.068-0.395,0.287-0.779,0.684-1.137c0.473-0.458,0.768-0.762,0.877-0.915c0.599-2.396,0.91-5.245,0.91-8.56
				c0.018-0.802,0.009-2.268-0.042-4.415c-0.042-1.918-0.05-3.469-0.025-4.652c-1.315,0.11-3.507,0.287-6.56,0.627
				c-2.748,0.287-5.042,0.615-6.863,0.932c0.051,9.325,0.093,14.091,0.102,14.283c0.177,1.354,0.463,2.389,0.859,3.103
				c0.92,1.619,1.375,2.321,1.357,2.104c-2.082,0.48-6.18,1.136-12.284,2.286c-1.155,0.223-1.854,0.273-2.108,0.158
				c0.043-0.354,0.295-0.813,0.776-1.405c0.564-0.634,0.91-1.127,1.037-1.482c0.599-1.457,0.911-3.763,0.986-6.923
				c0.017-0.957,0.017-2.281,0-3.997c-0.034-1.789-0.034-3.012,0-3.676c0.101-8.267,0.067-14.356-0.102-18.26
				c-0.05-0.613-0.05-1.515,0-2.697c0.06-1.302,0.085-2.201,0.06-2.677c-0.025-2.027-0.396-3.342-1.139-3.93
				c-0.258-0.106-0.517-0.212-0.775-0.317c-0.354-0.118-0.506-0.305-0.455-0.553c0.328-0.288,1.374-0.574,3.161-0.849
				c2.505-0.393,5.287-0.877,8.339-1.42c0.169-0.027,0.388-0.088,0.649-0.154c0.346-0.131,0.565-0.198,0.641-0.209
				c0.514-0.139,0.903-0.112,1.214,0.077c-0.05-0.211-0.506,0.53-1.357,2.222c-0.615,1.242-0.969,4.174-1.054,8.808
				c-0.075,5.215-0.151,8.288-0.194,9.223c6.839-0.975,11.383-1.395,13.617-1.783c0.018-1.004,0.043-2.347,0.051-4.033
				c0.026-2.145,0.042-3.587,0.042-4.321c0.067-4.971-0.177-7.912-0.691-8.845c-0.075-0.188-0.261-0.466-0.539-0.829
				c-0.312-0.386-0.498-0.646-0.591-0.789c-0.379-0.612-0.295-1.043,0.287-1.3C150.894,20.754,151.586,20.847,151.586,20.846z"/>
		</g>
		<path fill="#FFFFFF" d="M163.045,6.576c-54.323,0-108.646,33.034-162.969,33.065c0-2.192,0-4.384,0-6.576
			C54.399,33.034,108.722,0,163.045,0C163.045,2.192,163.045,4.384,163.045,6.576z"/>
		<path fill="#FFFFFF" d="M162.978,87.013C108.652,87.04,54.326,120.078,0,120.078c0-2.192,0-4.384,0-6.576
			c54.326,0,108.652-33.038,162.978-33.065C162.978,82.628,162.978,84.821,162.978,87.013z"/>
	</g>
</g>
</svg>
