<?xml version="1.0" encoding="utf-8"?>
<!-- Generator: Adobe Illustrator 16.0.0, SVG Export Plug-In . SVG Version: 6.00 Build 0)  -->
<!DOCTYPE svg PUBLIC "-//W3C//DTD SVG 1.1//EN" "http://www.w3.org/Graphics/SVG/1.1/DTD/svg11.dtd">
<svg version="1.1" id="Layer_1" xmlns="http://www.w3.org/2000/svg" xmlns:xlink="http://www.w3.org/1999/xlink" x="0px" y="0px"
	 width="143.143px" height="141.096px" viewBox="0 0 143.143 141.096" enable-background="new 0 0 143.143 141.096"
	 xml:space="preserve">
<g>
	<g>
		<g>
			<path fill="#FFFFFF" d="M34.439,71.459c-0.248,0.5-1.919,3.686-5.016,9.446c-2.104,3.887-3.739,7.084-4.903,9.626
				c-0.472,0.11-0.78,0.005-0.93-0.315c-0.05-0.09-0.099-0.243-0.147-0.457c-0.05-0.213-0.1-0.354-0.149-0.419
				c-0.816-1.675-3.765-6.697-8.842-15.448c-0.075,1.965-0.099,4.705-0.075,8.219c0.025,3.563,0.014,6.266-0.037,8.104
				c-0.197,6.785-0.31,10.042-0.334,9.771c0.024,0.245,0.111,0.693,0.261,1.346c0.148,0.65,0.248,1.16,0.297,1.524
				c0.297,2.912,0.582,4.6,0.854,5.062c0.074,0.139,0.372,0.424,0.893,0.852c0.396,0.344,0.606,0.725,0.631,1.143
				c0.024-0.037-1.721,0.233-5.238,0.609c-0.594,0.059-1.573,0.2-2.935,0.401c-1.362,0.201-2.391,0.307-3.084,0.341
				c-2.997,0.146-4.893,0.004-5.685-0.265c0.025,0.123,0.496-0.568,1.412-2.09c0.793-1.324,1.264-3.257,1.412-5.786
				c0.049-0.818,0.074-1.983,0.074-3.494c0.024-1.784,0.037-3.01,0.037-3.679c0.05-1.216,0.147-4.982,0.297-11.303
				c0.124-4.734,0.248-8.478,0.372-11.231c0.197-4.613,0.086-8.001-0.334-10.169c0.024,0.121-0.806-1.38-2.489-4.562
				c0.396-0.277,1.709-0.354,3.938-0.319c0.941,0.01,2.477,0,4.607-0.094c2.031-0.111,3.517-0.224,4.458-0.279
				c0.396,0.549,1.276,1.985,2.638,4.284c0.694,1.196,1.957,3.418,3.79,6.623c1.61,2.818,2.898,4.982,3.864,6.518
				c1.562-2.487,3.344-5.792,5.35-9.931c3.021-6.189,4.693-9.657,5.016-10.3c0.074-0.167,0.074-0.389,0-0.669
				c-0.074-0.255-0.037-0.486,0.11-0.694c1.512-0.457,3.245-0.896,5.202-1.33c2.725-0.609,4.385-1.026,4.979-1.189
				c1.957-0.544,3.158-0.746,3.604-0.576c-0.073,0.394-0.409,1.022-1.003,1.887c-0.644,0.927-1.027,1.593-1.151,2
				c-0.1,0.275-0.248,2.149-0.446,5.623c-0.025,0.23-0.173,9.598-0.446,28.101c-0.074,4.875,0.037,8.498,0.334,10.866
				c0.124,1.03,0.446,1.918,0.966,2.663c0.025,0.018,0.285,0.229,0.78,0.632c0.297,0.262,0.409,0.563,0.334,0.907
				c-0.495,0.414-1.659,0.897-3.492,1.43c-0.991,0.296-2.997,0.791-6.019,1.408c-2.625,0.541-4.632,0.992-6.02,1.404
				c0-0.372,0.261-0.812,0.78-1.329c0.619-0.611,0.979-1.043,1.077-1.29c0.372-0.829,0.619-3.328,0.743-7.493
				c0.147-4.196,0.186-7.228,0.11-9.093c-0.023-0.886-0.099-2.278-0.223-4.182c-0.124-1.779-0.198-3.124-0.223-4.034
				c0-0.792,0.012-2.231,0.037-4.317c0-1.957-0.013-3.403-0.037-4.338C34.439,71.534,34.439,71.497,34.439,71.459z"/>
			<path fill="#FFFFFF" d="M92.21,47.363c0,0-0.321,0.059-0.966,0.177c-0.668,0.101-1.201,0.225-1.598,0.369
				c-0.198-0.535-0.532-1.214-1.003-2.036c-3.071,0.794-10.489,3.194-22.254,7.231c-0.1,1.815-0.137,4.254-0.111,7.317
				c0.025,3.385,0,5.969-0.074,7.751c1.833-0.069,3.406-0.516,4.718-1.336c1.512-0.909,2.304-2.131,2.377-3.666
				c0.272,0.035,0.731-0.088,1.375-0.37c0.545-0.226,0.93-0.262,1.152-0.111c-0.173,1.146-0.271,2.96-0.297,5.445
				c-0.024,2.683-0.099,4.526-0.223,5.533c-0.843,0.99-1.659,1.314-2.452,0.977c-0.272-0.109-0.582-0.319-0.93-0.629
				c-0.471-0.418-0.742-0.65-0.816-0.702c-0.521,0.168-1.399,0.452-2.638,0.853c-1.091,0.376-1.846,0.619-2.267,0.729
				c-0.173,1.789-0.285,6.494-0.334,14.113c2.477-0.487,8.099-2.229,16.867-5.083c1.646-0.532,3.294-1.058,4.941-1.575
				c1.485-0.679,2.364-1.723,2.638-3.143c1.709-0.291,2.663-0.396,2.86-0.33c-0.197,0.651-0.892,2.589-2.08,5.817
				c-0.867,2.39-1.412,4.302-1.635,5.73c-4.706,1.817-10.601,3.746-17.684,5.742c-2.254,0.651-5.61,1.707-10.068,3.123
				c-5.176,1.642-8.271,2.556-9.288,2.837c0-0.446,0.334-1.276,1.003-2.494c1.438-2.688,2.218-5.283,2.341-7.772
				c0.693-12.969,0.805-24.521,0.335-34.653c-0.075-1.859-0.297-3.252-0.669-4.179c-0.224-0.625-0.769-1.337-1.636-2.139
				c-0.866-0.778-1.387-1.427-1.561-1.944C68.26,44.23,79.888,40.24,87.12,37.906c1.263-0.413,2.043-0.538,2.341-0.381
				c0.348,0.192,0.966,1.689,1.857,4.494c0.892,2.807,1.398,4.515,1.522,5.121C92.42,47.288,92.21,47.363,92.21,47.363z"/>
			<path fill="#FFFFFF" d="M97.56,86.573c0.124-0.158,0.31-0.347,0.557-0.564c0.272-0.249,0.446-0.408,0.521-0.479
				c0.073-0.269,0.21-0.641,0.408-1.116c0.224-0.558,0.372-0.933,0.446-1.125c0.322-0.855,0.334-1.466,0.037-1.83
				c0.099-0.399,0.21-3.601,0.334-9.603c0.147-8.312,0.409-16.372,0.78-24.175c0.271-5.67-0.21-9.345-1.449-11.011
				c-0.26-0.25-0.521-0.5-0.78-0.75c-0.322-0.257-0.471-0.562-0.446-0.916c1.636-0.987,9.995-3.688,25.078-5.399
				c2.279-0.229,3.876-0.247,4.792-0.112c3.245,0.491,6.749,2.262,10.515,5.396c1.709,2.407,2.762,4.252,3.157,5.483
				c0.817,2.664,1.188,6.775,1.114,12.324c-0.124,7.456-0.792,12.632-2.006,15.557c-1.783,4.475-4.446,7.776-7.988,10.068
				c-2.18,1.405-4.779,2.519-7.802,3.399c-1.511,0.441-3.554,0.844-6.13,1.267c-3.493,0.594-5.635,1.062-6.427,1.256
				c-1.238,0.32-3.195,0.746-5.87,1.331c-2.526,0.573-4.446,1.098-5.758,1.525c-0.297,0.08-0.657,0.239-1.078,0.479
				c-0.495,0.233-0.806,0.382-0.93,0.44c-0.644,0.277-1.163,0.188-1.561-0.269C97.002,87.399,97.164,87.007,97.56,86.573z
				 M130.736,64.868c0.446-1.111,0.805-2.78,1.078-5.011c-0.025,0.201,0.037-2.01,0.186-6.63c0.124-4.716-0.521-8.291-1.932-10.691
				c-0.148-0.134-0.706-0.632-1.672-1.482c-0.645-0.617-1.238-1.062-1.783-1.336c-1.635-0.873-4.025-1.251-7.17-1.037
				c0.347,0.003-2.303,0.271-7.95,1.191c0,0.11,0,0.223,0,0.334c-0.05,1.596-0.087,3.933-0.111,7.009
				c-0.024,3.397-0.062,5.81-0.11,7.232c-0.297,10.443-0.446,17.796-0.446,22.057c7.431-1.529,12.656-3.265,15.678-5.75
				C128.557,68.698,129.968,66.755,130.736,64.868z"/>
		</g>
		<path fill="#FFFFFF" d="M143.142,9.511c-47.727,0-95.453,30.847-143.18,30.847c0-3.17,0-6.34,0-9.511
			C47.689,30.847,95.416,0,143.142,0C143.142,3.17,143.142,6.34,143.142,9.511z"/>
		<path fill="#FFFFFF" d="M143.142,110.167c-47.727,0-95.453,30.847-143.18,30.847c0-3.17,0-6.34,0-9.511
			c47.727,0,95.453-30.847,143.18-30.847C143.142,103.826,143.142,106.996,143.142,110.167z"/>
	</g>
</g>
</svg>
